<?xml version="1.0" encoding="UTF-8"?>
<svg version="1.1" xmlns="http://www.w3.org/2000/svg" width="749" height="591">
<path d="M0 0 C7.93613787 -0.02312764 15.87226176 -0.04091723 23.80842495 -0.05181217 C27.49314498 -0.05704008 31.17784203 -0.06413605 34.86254883 -0.07543945 C38.41570831 -0.08627162 41.96884563 -0.09227753 45.52202034 -0.09487724 C46.88045666 -0.0967309 48.23889171 -0.10035038 49.59731865 -0.10573006 C51.49382223 -0.11294475 53.39034793 -0.11340809 55.28686523 -0.11352539 C56.36830307 -0.115746 57.44974091 -0.11796661 58.56394958 -0.12025452 C61 0 61 0 62 1 C62.10934879 3.23994187 62.14693293 5.48338644 62.15821838 7.72596741 C62.16315636 8.43735994 62.16809434 9.14875248 62.17318195 9.88170236 C62.18863096 12.28319298 62.19693747 14.68465671 62.20532227 17.08618164 C62.21489499 18.80059549 62.2249047 20.51500696 62.23532104 22.22941589 C62.26244191 26.89861402 62.28341246 31.56782233 62.30332303 36.23705602 C62.32513845 41.11113561 62.3525488 45.98518357 62.37937927 50.85923767 C62.42936645 60.09567136 62.47428285 69.33212255 62.51740164 78.56859058 C62.56672263 89.08113112 62.62165975 99.59363992 62.67708123 110.10614979 C62.79099373 131.73740365 62.89781248 153.36868779 63 175 C63.33 174.67 63.66 174.34 64 174 C66.86267567 173.92674832 69.700719 173.90761795 72.5625 173.9375 C73.36880859 173.94201172 74.17511719 173.94652344 75.00585938 173.95117188 C77.00393756 173.96299482 79.00197783 173.98093086 81 174 C81.01981934 172.83428467 81.03963867 171.66856934 81.06005859 170.4675293 C81.13608959 166.14553095 81.22481076 161.82387038 81.31738281 157.50219727 C81.35568294 155.63117132 81.390534 153.76007147 81.421875 151.88891602 C81.46750324 149.20041481 81.52550088 146.51242277 81.5859375 143.82421875 C81.59748871 142.98662521 81.60903992 142.14903168 81.62094116 141.28605652 C81.72046457 137.37626963 81.7847302 135.3229047 84 132 C86.64453125 130.83203125 86.64453125 130.83203125 89.8125 129.8125 C90.85019531 129.46832031 91.88789063 129.12414062 92.95703125 128.76953125 C95.79340515 128.05224542 98.09400539 127.8442258 101 128 C101 127.34 101 126.68 101 126 C107.63139221 124.45267515 114.23515949 123.56654492 121 122.875 C121.82983398 122.78750488 122.65966797 122.70000977 123.51464844 122.60986328 C134.02038813 121.58405726 144.02397932 122.15083579 154.5 123.375 C155.67820312 123.50132812 156.85640625 123.62765625 158.0703125 123.7578125 C159.19179688 123.88671875 160.31328125 124.015625 161.46875 124.1484375 C162.48388672 124.26364746 163.49902344 124.37885742 164.54492188 124.49755859 C167 125 167 125 169 127 C170.92807466 127.57116518 170.92807466 127.57116518 173.125 127.9375 C177.63359295 128.8580648 181.74549428 130.27045094 186 132 C186.99 132.391875 187.98 132.78375 189 133.1875 C189.66 133.455625 190.32 133.72375 191 134 C191 134.66 191 135.32 191 136 C192.0209375 136.1546875 192.0209375 136.1546875 193.0625 136.3125 C198.21487414 137.5183748 202.33766683 139.18506962 206 143 C208.28917157 144.42621073 210.63221621 145.70442019 213 147 C213 147.66 213 148.32 213 149 C213.86625 149.4021875 213.86625 149.4021875 214.75 149.8125 C217.05550043 151.02929189 219.02056192 152.30333879 221 154 C221 154.66 221 155.32 221 156 C221.598125 156.28875 222.19625 156.5775 222.8125 156.875 C225 158 225 158 228 160 C228 160.99 228 161.98 228 163 C228.7425 163.20625 229.485 163.4125 230.25 163.625 C233.79496959 165.39748479 234.94798396 167.67431884 237 171 C239.70967204 172.35483602 241.60375327 171.84240981 244.625 171.625 C253.41629779 171.4871745 260.31975596 175.13523021 268 179 C268 178.01 268 177.02 268 176 C267.01 175.67 266.02 175.34 265 175 C264.0625 172.9375 264.0625 172.9375 263 170 C260.71747884 165.02553684 258.06111306 160.54229679 255 156 C252.85151953 152.16342773 252 150.45966933 252 146 C251.34 146 250.68 146 250 146 C241 133.31476323 241 133.31476323 241 128 C240.01 127.67 239.02 127.34 238 127 C239 124 239 124 240.65744019 122.82966614 C243.69077983 121.755346 246.26133112 121.73815666 249.48095703 121.7253418 C250.79556915 121.71580978 252.11018127 121.70627777 253.46463013 121.69645691 C254.89569119 121.69671826 256.32675227 121.69765496 257.7578125 121.69921875 C259.22704184 121.6953313 260.69627006 121.69099653 262.16549683 121.68623352 C265.24041392 121.6787801 268.31521616 121.67905725 271.39013672 121.68432617 C275.33593653 121.69013541 279.28126916 121.67315105 283.22699165 121.6499815 C286.25868489 121.63527603 289.29026457 121.63436779 292.32198715 121.63749123 C293.7772909 121.63697692 295.23260082 121.63171869 296.68787003 121.62167931 C298.71782114 121.60938831 300.74786671 121.61802098 302.77783203 121.62768555 C303.9338089 121.62705612 305.08978577 121.6264267 306.28079224 121.6257782 C307.1781308 121.74927139 308.07546936 121.87276459 309 122 C311 125 311 125 311 128 C311.66 128 312.32 128 313 128 C313.67408308 129.26691507 314.33900497 130.53870749 315 131.8125 C315.37125 132.52019531 315.7425 133.22789062 316.125 133.95703125 C317 136 317 136 317 139 C317.66 139 318.32 139 319 139 C319.33 140.65 319.66 142.3 320 144 C320.99 144.33 321.98 144.66 323 145 C323.7121883 146.59394524 324.41167303 148.19502998 325.0390625 149.82421875 C326.59624996 153.35004563 328.72287418 156.52197317 330.79296875 159.765625 C332 162 332 162 332 165 C332.66 165 333.32 165 334 165 C334.12375 165.804375 334.2475 166.60875 334.375 167.4375 C334.684375 168.7059375 334.684375 168.7059375 335 170 C335.66 170.33 336.32 170.66 337 171 C337.625 173.5625 337.625 173.5625 338 176 C338.99 176 339.98 176 341 176 C341 175.34 341 174.68 341 174 C348.09326321 172.27669093 354.70968976 171.7505217 362 172 C362.0825 171.05125 362.165 170.1025 362.25 169.125 C362.62125 167.578125 362.62125 167.578125 363 166 C364.33333333 165.33333333 365.66666667 164.66666667 367 164 C367.37086181 162.00661779 367.69737711 160.00487668 368 158 C369.18188612 155.54962404 370.57032644 153.32321953 372 151 C372.33 150.34 372.66 149.68 373 149 C373.66 149 374.32 149 375 149 C375.33 147.02 375.66 145.04 376 143 C376.66 143 377.32 143 378 143 C378.268125 142.319375 378.53625 141.63875 378.8125 140.9375 C379.204375 139.968125 379.59625 138.99875 380 138 C380.433125 136.88625 380.86625 135.7725 381.3125 134.625 C383.81963923 129.23929351 386.26005147 124.25967464 392 122 C395.02459717 121.79745483 395.02459717 121.79745483 398.60449219 121.86474609 C399.25856552 121.87420761 399.91263885 121.88366913 400.58653259 121.89341736 C402.74027078 121.9269933 404.893421 121.97513488 407.046875 122.0234375 C408.54329916 122.0496152 410.03973952 122.07488137 411.53619385 122.09927368 C415.46877596 122.16582128 419.40101606 122.24473608 423.33331299 122.32623291 C427.34837753 122.40725416 431.36364228 122.47657123 435.37890625 122.546875 C443.2528472 122.68646562 451.12646534 122.83912272 459 123 C457.77987971 127.40649391 456.48814488 131.37803747 454.375 135.4375 C453.92898438 136.30246094 453.48296875 137.16742188 453.0234375 138.05859375 C452.68570313 138.69925781 452.34796875 139.33992187 452 140 C451.34 140 450.68 140 450 140 C449.87625 140.7425 449.7525 141.485 449.625 142.25 C449.04513299 144.80141485 448.26291261 146.7267573 447 149 C446.34 149 445.68 149 445 149 C444.88785156 149.55171875 444.77570312 150.1034375 444.66015625 150.671875 C443.88639227 153.40065211 442.73182306 155.72772943 441.4375 158.25 C440.98246094 159.14203125 440.52742188 160.0340625 440.05859375 160.953125 C439.70925781 161.62859375 439.35992188 162.3040625 439 163 C438.34 163 437.68 163 437 163 C436.896875 163.70125 436.79375 164.4025 436.6875 165.125 C435.90640997 168.39137647 434.57941257 171.0471852 433 174 C432.34 174 431.68 174 431 174 C430.87625 174.556875 430.7525 175.11375 430.625 175.6875 C429.94023145 178.22114364 429.00866237 180.57921032 428 183 C427.34 183 426.68 183 426 183 C426.33 185.31 426.66 187.62 427 190 C427.66 188.68 428.32 187.36 429 186 C429.66 186 430.32 186 431 186 C431 185.01 431 184.02 431 183 C431.66 183 432.32 183 433 183 C433.3403125 182.1028125 433.3403125 182.1028125 433.6875 181.1875 C435.97365717 177.37723804 439.23675813 176.27361501 443.3125 174.8125 C446.29776045 174.15473075 448.28328776 173.95362983 451.25 174.0625 C454.82161186 174.36521389 454.82161186 174.36521389 456.5703125 172.84375 C458.37536259 170.51592584 459.45271695 168.13806617 460.625 165.4375 C461.26308594 163.98150391 461.26308594 163.98150391 461.9140625 162.49609375 C462.27242187 161.67238281 462.63078125 160.84867188 463 160 C463.33 159.34 463.66 158.68 464 158 C464.66 158 465.32 158 466 158 C466.20625 157.21625 466.4125 156.4325 466.625 155.625 C468.19423039 151.48793806 470.31274344 148.00587779 472.66015625 144.26953125 C474.12903566 141.96285499 474.12903566 141.96285499 475 139 C475.66 139 476.32 139 477 139 C477.103125 138.071875 477.20625 137.14375 477.3125 136.1875 C478.02570928 132.88080243 478.55594822 132.12526242 481 130 C481 129.34 481 128.68 481 128 C481.66 128 482.32 128 483 128 C483.103125 127.360625 483.20625 126.72125 483.3125 126.0625 C483.539375 125.381875 483.76625 124.70125 484 124 C487.37978558 122.87340481 489.92816136 122.87979017 493.4909668 122.88647461 C494.1448941 122.88632858 494.79882141 122.88618256 495.4725647 122.8860321 C497.63148326 122.88672812 499.79031528 122.89450592 501.94921875 122.90234375 C503.44708713 122.90420904 504.94495611 122.90563242 506.44282532 122.90663147 C510.38345019 122.91044793 514.32403814 122.9202708 518.26464844 122.93133545 C522.28645325 122.94156828 526.30826404 122.9461331 530.33007812 122.95117188 C538.22006901 122.96189384 546.11002991 122.97895983 554 123 C554.93423645 126.01031744 555.04449911 126.86650268 554 130 C553.34 130 552.68 130 552 130 C551.7525 130.825 551.505 131.65 551.25 132.5 C549.81295189 136.52373471 547.97645485 140.21979024 546 144 C545.34 144 544.68 144 544 144 C543.896875 144.721875 543.79375 145.44375 543.6875 146.1875 C542.93281717 149.27483884 541.6772415 151.31641361 540 154 C539.30177383 155.65369357 538.62501395 157.31727014 538 159 C537.34 159 536.68 159 536 159 C535.67 160.65 535.34 162.3 535 164 C534.34 164 533.68 164 533 164 C532.690625 164.94875 532.38125 165.8975 532.0625 166.875 C531 170 531 170 530 172 C530.9590625 172.185625 530.9590625 172.185625 531.9375 172.375 C532.618125 172.58125 533.29875 172.7875 534 173 C534.33 173.66 534.66 174.32 535 175 C535.66 174.67 536.32 174.34 537 174 C537 174.66 537 175.32 537 176 C537.886875 176.0825 538.77375 176.165 539.6875 176.25 C543.44097537 177.09984348 545.25968046 178.34027809 548 181 C548 181.66 548 182.32 548 183 C548.99 183.33 549.98 183.66 551 184 C551.6875 186.0625 551.6875 186.0625 552 188 C552.66 188 553.32 188 554 188 C555.62950412 192.12168689 556.26264601 194.70700357 555 199 C553.68 199 552.36 199 551 199 C551 199.66 551 200.32 551 201 C547.12315913 202.19287411 544.08378077 203 540 203 C540 203.66 540 204.32 540 205 C537.6875 204.875 537.6875 204.875 535 204 C533.9349985 202.03384339 532.93166826 200.03273074 532 198 C531.01 197.67 530.02 197.34 529 197 C529 196.01 529 195.02 529 194 C526.36 194 523.72 194 521 194 C520.67 194.99 520.34 195.98 520 197 C518.68 197 517.36 197 516 197 C516 197.99 516 198.98 516 200 C515.34 200 514.68 200 514 200 C514.144375 201.2375 514.28875 202.475 514.4375 203.75 C515.32226031 212.47120876 515.6037011 221.24574456 516 230 C519.69990949 231.91144908 522.86117858 233.39134979 527 234 C527 233.34 527 232.68 527 232 C527.9075 231.79375 528.815 231.5875 529.75 231.375 C533.75732776 229.6795921 534.89484661 227.72450216 537 224 C540.19606218 224.49938472 543.01285222 225.36311491 546 226.5625 C549.12808169 227.78292581 551.60239272 228.31852568 555 228 C556.42857143 236.42857143 556.42857143 236.42857143 554 241 C553.34 241 552.68 241 552 241 C551.34 242.65 550.68 244.3 550 246 C549.34 246 548.68 246 548 246 C548 246.66 548 247.32 548 248 C543.61407138 252.74154446 539.91909801 253.70762659 533.60546875 254.59375 C530.85168867 254.93390939 530.85168867 254.93390939 527.8125 256.1875 C519.60582256 258.55831793 510.43781336 254.33942641 503 251 C503 250.01 503 249.02 503 248 C502.1028125 247.62875 502.1028125 247.62875 501.1875 247.25 C498.66413131 245.80807503 497.49969924 244.47450374 496 242 C496 241.01 496 240.02 496 239 C495.01 238.67 494.02 238.34 493 238 C492.01 239.98 491.02 241.96 490 244 C489.34 244 488.68 244 488 244 C487.88785156 244.72574219 487.77570312 245.45148438 487.66015625 246.19921875 C486.97038613 249.12563993 485.94489186 251.22287809 484.4375 253.8125 C483.98246094 254.60269531 483.52742187 255.39289063 483.05859375 256.20703125 C482.70925781 256.79871094 482.35992188 257.39039063 482 258 C481.34 258 480.68 258 480 258 C479.88785156 258.71542969 479.77570312 259.43085938 479.66015625 260.16796875 C478.95543995 263.19115998 477.86712202 265.56322688 476.4375 268.3125 C475.98246094 269.19550781 475.52742187 270.07851563 475.05859375 270.98828125 C474.70925781 271.65214844 474.35992188 272.31601562 474 273 C473.34 273 472.68 273 472 273 C471.7215625 273.72058594 471.443125 274.44117188 471.15625 275.18359375 C470.0480179 277.88303748 468.81905984 280.46057403 467.5 283.0625 C467.0771875 283.89910156 466.654375 284.73570312 466.21875 285.59765625 C465.8165625 286.39042969 465.414375 287.18320312 465 288 C464.33243137 289.33288197 463.6654341 290.66605109 463 292 C462.34 292 461.68 292 461 292 C460.79503906 292.62648438 460.59007812 293.25296875 460.37890625 293.8984375 C459.97478516 295.12433594 459.97478516 295.12433594 459.5625 296.375 C459.16224609 297.59316406 459.16224609 297.59316406 458.75390625 298.8359375 C458 301 458 301 457 303 C456.34 303 455.68 303 455 303 C455 303.99 455 304.98 455 306 C454.34 306 453.68 306 453 306 C452.87625 307.299375 452.87625 307.299375 452.75 308.625 C451.89008133 312.49463402 450.28040293 314.79318338 448 318 C447.67 318.99 447.34 319.98 447 321 C446.34 321 445.68 321 445 321 C444.73960937 321.8559375 444.47921875 322.711875 444.2109375 323.59375 C442.95888782 327.11564459 441.41332489 330.22010281 439.625 333.5 C439.03976562 334.5828125 438.45453125 335.665625 437.8515625 336.78125 C436.61388283 338.93282817 435.29928899 341.04188117 433.9140625 343.1015625 C432.22547272 345.65856988 430.94267035 348.0637056 429.75 350.875 C429.41484375 351.65617187 429.0796875 352.43734375 428.734375 353.2421875 C428.49203125 353.82226562 428.2496875 354.40234375 428 355 C427.34 355 426.68 355 426 355 C425.73832031 355.88171875 425.47664063 356.7634375 425.20703125 357.671875 C424.02223276 360.93869803 422.62489581 363.3804204 420.6875 366.25 C417.36132813 371.3326119 414.60912184 376.52276261 412 382 C410 386 408 390 406 394 C405.34 394 404.68 394 404 394 C403.67 395.98 403.34 397.96 403 400 C402.01 400.33 401.02 400.66 400 401 C400 402.32 400 403.64 400 405 C396 405 396 405 394.4375 403.56640625 C386 391.80434783 386 391.80434783 386 386 C385.34 386 384.68 386 384 386 C381.56839395 382.63316085 381 381.26649636 381 377 C380.34 377 379.68 377 379 377 C378.32591692 375.73308493 377.66099503 374.46129251 377 373.1875 C376.62875 372.47980469 376.2575 371.77210938 375.875 371.04296875 C375 369 375 369 375 366 C374.34 366 373.68 366 373 366 C370 360.375 370 360.375 370 357 C369.34 357 368.68 357 368 357 C367.566875 355.824375 367.566875 355.824375 367.125 354.625 C366.15087746 351.90328368 366.15087746 351.90328368 364 350 C363.08181061 348.37786542 362.2115276 346.72821724 361.375 345.0625 C360.92898438 344.18722656 360.48296875 343.31195313 360.0234375 342.41015625 C359 340 359 340 359 337 C358.34 337 357.68 337 357 337 C354.25624329 334.04518508 354 333.22528092 354 329 C353.34 329 352.68 329 352 329 C351.34 327.02 350.68 325.04 350 323 C347.96758273 323.63979849 347.96758273 323.63979849 346 325 C345.87238281 325.72058594 345.74476563 326.44117188 345.61328125 327.18359375 C344.82166071 330.81899763 343.14532894 333.25940115 341.125 336.375 C338.24393392 340.82948962 335.97268477 345.09930513 334 350 C333.34 350 332.68 350 332 350 C331.95875 350.825 331.9175 351.65 331.875 352.5 C330.84930769 356.60276924 329.08756656 358.73371748 326.48828125 361.984375 C324.38657853 364.83077553 323.30179708 367.71451213 322 371 C320.4375 373.9375 320.4375 373.9375 319 376 C318.34 376 317.68 376 317 376 C316.896875 376.886875 316.79375 377.77375 316.6875 378.6875 C315.97782191 382.10685807 314.90168589 384.10943744 313 387 C312.31903578 388.32608822 311.64669414 389.65686601 311 391 C310.34 391 309.68 391 309 391 C308.88785156 391.72574219 308.77570313 392.45148438 308.66015625 393.19921875 C307.97038613 396.12563993 306.94489186 398.22287809 305.4375 400.8125 C304.98246094 401.60269531 304.52742188 402.39289063 304.05859375 403.20703125 C303.70925781 403.79871094 303.35992187 404.39039063 303 405 C299.7100285 404.43276353 298.10381289 403.60193015 296 401 C295.13319619 399.44573109 294.32423008 397.85837433 293.5625 396.25 C292.05051592 393.1209695 290.50790029 390.06051904 288.75 387.0625 C287 384 287 384 286 381 C285.2575 380.319375 285.2575 380.319375 284.5 379.625 C282.56690264 377.53081119 282.37547204 375.77849308 282 373 C281.34 373 280.68 373 280 373 C276.71428571 365.57142857 276.71428571 365.57142857 276 362 C275.34 362 274.68 362 274 362 C272.99515796 360.04414675 271.99626195 358.08523763 271 356.125 C270.443125 355.03445313 269.88625 353.94390625 269.3125 352.8203125 C268 350 268 350 268 348 C267.34 348 266.68 348 266 348 C264.99267601 346.06629769 263.99436712 344.12789694 263 342.1875 C262.443125 341.10855469 261.88625 340.02960938 261.3125 338.91796875 C260 336 260 336 260 333 C259.34 333 258.68 333 258 333 C257.7525 332.319375 257.505 331.63875 257.25 330.9375 C255.33494059 326.43711038 252.83065792 322.33498594 250.25 318.1875 C249 316 249 316 249 314 C248.34 314 247.68 314 247 314 C246.29423828 312.55367188 246.29423828 312.55367188 245.57421875 311.078125 C244.94552821 309.80197704 244.31660993 308.52594126 243.6875 307.25 C243.37876953 306.61578125 243.07003906 305.9815625 242.75195312 305.328125 C241.08118166 301.95140793 239.2845172 298.98256412 237 296 C236.22490017 294.48090803 235.49468867 292.93802232 234.8125 291.375 C234.29623047 290.21097656 234.29623047 290.21097656 233.76953125 289.0234375 C233 287 233 287 233 285 C232.34 285 231.68 285 231 285 C231 283.68 231 282.36 231 281 C230.34 281 229.68 281 229 281 C225 274.375 225 274.375 225 271 C224.34 271 223.68 271 223 271 C222.5978125 269.88625 222.5978125 269.88625 222.1875 268.75 C221.1495526 266.04215229 221.1495526 266.04215229 219.59375 264.15625 C217.84487151 261.79012028 216.59948617 259.39353917 215.3125 256.75 C214.87550781 255.85796875 214.43851562 254.9659375 213.98828125 254.046875 C213.66214844 253.37140625 213.33601563 252.6959375 213 252 C212.67 252.66 212.34 253.32 212 254 C209.16607074 254.08174796 206.33455181 254.14084985 203.5 254.1875 C202.70851563 254.21263672 201.91703125 254.23777344 201.1015625 254.26367188 C195.39269215 254.3338629 191.16755173 253.49648614 186 251 C185.67 250.01 185.34 249.02 185 248 C184.01 248 183.02 248 182 248 C182 247.34 182 246.68 182 246 C181.34 246 180.68 246 180 246 C178.23537317 242.91190305 178 241.76687864 178 238 C177.34 238 176.68 238 176 238 C174.76819866 234.30459598 174.87587888 230.89696622 174.90234375 227.05078125 C174.90446617 225.89185616 174.90446617 225.89185616 174.90663147 224.70951843 C174.91222534 222.24380611 174.92477667 219.77818485 174.9375 217.3125 C174.94251579 215.63997527 174.94707856 213.96744912 174.95117188 212.29492188 C174.96219276 208.19657954 174.97945316 204.09830521 175 200 C170.10957265 197.99218446 166.35454554 196.61170454 161 196.8125 C160.05125 196.83957031 159.1025 196.86664063 158.125 196.89453125 C157.42375 196.92933594 156.7225 196.96414063 156 197 C155.94113829 200.79159964 155.90611776 204.58307919 155.875 208.375 C155.84986328 209.96634766 155.84986328 209.96634766 155.82421875 211.58984375 C155.78297428 218.31269261 156.37829164 224.47111548 158 231 C158.72864258 231.05752441 159.45728516 231.11504883 160.20800781 231.17431641 C164.8241819 231.5387512 167.76344894 231.88172447 172 234 C172 240.6 172 247.2 172 254 C168.968125 254.020625 165.93625 254.04125 162.8125 254.0625 C161.86608643 254.071604 160.91967285 254.08070801 159.94458008 254.09008789 C155.83317188 254.10361657 152.00798828 254.05386027 148 253 C148 252.34 148 251.68 148 251 C146.68 250.67 145.36 250.34 144 250 C144 249.34 144 248.68 144 248 C143.2575 247.855625 142.515 247.71125 141.75 247.5625 C138.21230787 245.55244765 137.26722159 243.86181069 135.78125 240.12890625 C133.98133576 232.92024971 134.11230991 225.39373551 134 218 C133.98485352 217.1867627 133.96970703 216.37352539 133.95410156 215.53564453 C133.91543117 213.21117657 133.89022751 210.88723316 133.875 208.5625 C133.87016602 207.85931641 133.86533203 207.15613281 133.86035156 206.43164062 C133.87164476 203.14370822 133.98690186 200.14382041 135 197 C133.2984375 197.0309375 133.2984375 197.0309375 131.5625 197.0625 C128 197 128 197 127 196 C126.67 193.69 126.34 191.38 126 189 C125.67 208.8 125.34 228.6 125 249 C116.02777778 253.48611111 116.02777778 253.48611111 109.625 254.1875 C105.15845203 254.57073438 105.15845203 254.57073438 101 256 C98.6474616 256.0969531 96.2920305 256.1297905 93.9375 256.125 C92.66777344 256.12757813 91.39804688 256.13015625 90.08984375 256.1328125 C87 256 87 256 86 255 C84.27392556 254.72947385 82.54394983 254.48366394 80.8125 254.25 C75.42163693 253.32344541 72.70233846 252.00252806 69 248 C69 247.34 69 246.68 69 246 C68.01 245.67 67.02 245.34 66 245 C64.3125 241.9375 64.3125 241.9375 63 239 C62.9501243 243.94383313 62.91405789 248.88751599 62.89013672 253.83154297 C62.88015197 255.50930334 62.86655943 257.18704664 62.84912109 258.86474609 C62.63808221 271.08541346 62.63808221 271.08541346 64.5546875 283.11328125 C65.17825061 285.75521971 65.14200019 288.3019963 65 291 C65.66 291 66.32 291 67 291 C68.00696568 293.10084209 69.0053589 295.20579489 70 297.3125 C70.556875 298.48425781 71.11375 299.65601563 71.6875 300.86328125 C73 304 73 304 73 307 C73.66 307 74.32 307 75 307 C75.20625 307.556875 75.4125 308.11375 75.625 308.6875 C76.98816442 311.27237323 76.98816442 311.27237323 80 313.5 C83 316 83 316 84 318.0625 C85.54090864 321.04801048 88.21996384 322.22550883 91 324 C91.33 324.66 91.66 325.32 92 326 C92.99 326.33 93.98 326.66 95 327 C95 327.66 95 328.32 95 329 C95.763125 329.12375 96.52625 329.2475 97.3125 329.375 C100 330 100 330 103 332 C103 332.66 103 333.32 103 334 C104.175625 334.103125 105.35125 334.20625 106.5625 334.3125 C110.76352303 334.82283554 114.12043316 336.30709811 118 338 C130.92078708 340.42674681 145.54717165 340.29769329 158 336 C164 334 164 334 167 334 C167 333.34 167 332.68 167 332 C167.99 332 168.98 332 170 332 C170 331.34 170 330.68 170 330 C171.28913487 329.32845067 172.58140204 328.66291141 173.875 328 C174.59429687 327.62875 175.31359375 327.2575 176.0546875 326.875 C178 326 178 326 180 326 C180.3403125 325.13375 180.3403125 325.13375 180.6875 324.25 C182.33488275 321.42591529 184.43454838 320.0023037 187 318 C187.556875 317.2575 188.11375 316.515 188.6875 315.75 C189.120625 315.1725 189.55375 314.595 190 314 C190.66 314 191.32 314 192 314 C192.66 312.02 193.32 310.04 194 308 C194.66 308 195.32 308 196 308 C196.28875 307.0925 196.5775 306.185 196.875 305.25 C197.76531776 302.67797092 198.71494413 300.38653234 200 298 C200.66 298 201.32 298 202 298 C201.9175 297.29875 201.835 296.5975 201.75 295.875 C202.08667557 292.00323092 203.57396616 289.98055586 206 287 C206.99 287 207.98 287 209 287 C209.33 288.65 209.66 290.3 210 292 C210.66 292 211.32 292 212 292 C212 292.66 212 293.32 212 294 C212.66 294 213.32 294 214 294 C214.391875 294.94875 214.78375 295.8975 215.1875 296.875 C216.56719807 300.08115551 218.03772153 303.23521949 219.5625 306.375 C219.97628906 307.22835938 220.39007813 308.08171875 220.81640625 308.9609375 C221.83562751 311.14658243 221.83562751 311.14658243 224 312 C226.39982029 316.383068 228.35753223 321.02087479 229 326 C229.99 326 230.98 326 232 326 C233.31746333 328.58090767 234.62909617 331.16450458 235.9375 333.75 C236.31068359 334.47960937 236.68386719 335.20921875 237.06835938 335.9609375 C237.60493164 337.02441406 237.60493164 337.02441406 238.15234375 338.109375 C238.48226318 338.75874023 238.81218262 339.40810547 239.15209961 340.07714844 C240.01452116 342.03293079 240.54374179 343.91540694 241 346 C241.66 346 242.32 346 243 346 C243 347.65 243 349.3 243 351 C241.68 351.66 240.36 352.32 239 353 C239 353.99 239 354.98 239 356 C236.6875 358.5 236.6875 358.5 234 361 C233.443125 361.598125 232.88625 362.19625 232.3125 362.8125 C231 364 231 364 229 364 C228.6596875 364.8353125 228.6596875 364.8353125 228.3125 365.6875 C225.88126923 369.97109708 222.10175395 373.31264396 218 376 C217.34 376 216.68 376 216 376 C215.79375 376.598125 215.5875 377.19625 215.375 377.8125 C213.00685469 381.5800039 209.08454513 382.63848496 205 384 C205 384.66 205 385.32 205 386 C203.37750059 386.83819158 201.75191503 387.6704116 200.125 388.5 C199.22007812 388.9640625 198.31515625 389.428125 197.3828125 389.90625 C195 391 195 391 193 391 C193 391.66 193 392.32 193 393 C191.58603098 393.50757862 190.16868271 394.00574925 188.75 394.5 C187.56664062 394.91765625 187.56664062 394.91765625 186.359375 395.34375 C184 396 184 396 180 396 C180 396.66 180 397.32 180 398 C174.90934177 400.05412525 170.48270676 401.32864815 165 402 C164.67 402.33 164.34 402.66 164 403 C153.4787306 405.44921723 142.91226176 405.23824084 132.1875 405.125 C130.5123752 405.11494114 128.83724448 405.10582047 127.16210938 405.09765625 C123.10792371 405.07589355 119.0540294 405.04152737 115 405 C115 404.67 115 404.34 115 404 C114.43152344 403.95101563 113.86304688 403.90203125 113.27734375 403.8515625 C105.11963299 403.0616673 97.72474487 400.62746424 90 398 C90 397.34 90 396.68 90 396 C88.7625 395.87625 87.525 395.7525 86.25 395.625 C83.1237803 395.24253695 80.71120763 394.69450477 78 393 C78 392.34 78 391.68 78 391 C77.43796875 390.87753906 76.8759375 390.75507813 76.296875 390.62890625 C73.81013481 389.9480131 71.59485224 389.00647675 69.25 387.9375 C68.45078125 387.57527344 67.6515625 387.21304687 66.828125 386.83984375 C66.22484375 386.56269531 65.6215625 386.28554688 65 386 C65 385.34 65 384.68 65 384 C63.68 383.67 62.36 383.34 61 383 C61 382.34 61 381.68 61 381 C59.6696875 380.6596875 59.6696875 380.6596875 58.3125 380.3125 C54.52028229 378.80992317 52.74983721 376.96692962 50 374 C49.236875 373.443125 48.47375 372.88625 47.6875 372.3125 C47.130625 371.879375 46.57375 371.44625 46 371 C46 370.34 46 369.68 46 369 C45.01 368.67 44.02 368.34 43 368 C43 367.34 43 366.68 43 366 C42.01 366 41.02 366 40 366 C37.984375 363.91015625 37.984375 363.91015625 35.75 361.0625 C34.95722656 360.05960937 34.16445312 359.05671875 33.34765625 358.0234375 C32.57292969 357.02570313 31.79820312 356.02796875 31 355 C30.33871094 354.16726563 29.67742187 353.33453125 28.99609375 352.4765625 C23.26404825 345.22174897 17.94840922 337.84522765 15 329 C14.34 328.67 13.68 328.34 13 328 C12.06575482 325.6716631 11.22590419 323.37690997 10.4375 321 C9.27294718 316.66853606 9.27294718 316.66853606 7 313 C6.95936168 311.33382885 6.957279 309.66611905 7 308 C6.34 308 5.68 308 5 308 C2.24569854 299.99416377 1.34698454 292.02870777 0.64697266 283.64355469 C0.5394165 282.37753418 0.5394165 282.37753418 0.4296875 281.0859375 C0.37022949 280.3232959 0.31077148 279.5606543 0.24951172 278.77490234 C0.17841914 276.97782376 0.17841914 276.97782376 -1 276 C-1.08700342 274.36527118 -1.10701063 272.72685945 -1.09765625 271.08984375 C-1.09282227 269.60581055 -1.09282227 269.60581055 -1.08789062 268.09179688 C-1.07532227 266.53041992 -1.07532227 266.53041992 -1.0625 264.9375 C-1.05798828 263.89271484 -1.05347656 262.84792969 -1.04882812 261.77148438 C-1.03699913 259.1809334 -1.02051689 256.59049441 -1 254 C-2.32 254 -3.64 254 -5 254 C-5.495 245.09 -5.495 245.09 -6 236 C-6.99 238.64 -7.98 241.28 -9 244 C-10.5 246.5 -10.5 246.5 -12 248 C-12.99 248 -13.98 248 -15 248 C-15 248.99 -15 249.98 -15 251 C-22.86056296 254.0339015 -29.88942564 256.35968203 -38.375 256.25 C-39.12595947 256.24395752 -39.87691895 256.23791504 -40.65063477 256.23168945 C-45.99413149 256.13609399 -50.88083811 255.59370134 -56 254 C-57.36511719 253.60361328 -57.36511719 253.60361328 -58.7578125 253.19921875 C-61.17920692 252.48763905 -63.59160514 251.75419463 -66 251 C-66 250.34 -66 249.68 -66 249 C-66.66 249 -67.32 249 -68 249 C-67.45898349 244.67186791 -66.33243731 240.9477689 -64.71875 236.9296875 C-63.93468346 234.9936327 -63.93468346 234.9936327 -63.59765625 232.8359375 C-63.30181641 231.92714844 -63.30181641 231.92714844 -63 231 C-59.9375 229.75 -59.9375 229.75 -57 229 C-57 229.66 -57 230.32 -57 231 C-56.00097656 231.06058594 -55.00195312 231.12117187 -53.97265625 231.18359375 C-52.68230469 231.26738281 -51.39195313 231.35117187 -50.0625 231.4375 C-48.13083984 231.55931641 -48.13083984 231.55931641 -46.16015625 231.68359375 C-43 232 -43 232 -42 233 C-37.26774995 233.33243079 -32.60711442 233.18893275 -28 232 C-28.495 229.525 -28.495 229.525 -29 227 C-30.07314453 226.87044922 -30.07314453 226.87044922 -31.16796875 226.73828125 C-39.30440255 225.5909704 -46.44548084 223.19239358 -54 220 C-54 219.34 -54 218.68 -54 218 C-54.60457031 217.90460938 -55.20914063 217.80921875 -55.83203125 217.7109375 C-58.4828509 216.84165971 -59.15523505 215.91614697 -60.6875 213.625 C-61.31205078 212.71621094 -61.31205078 212.71621094 -61.94921875 211.7890625 C-65.24251339 206.1818917 -64.41658986 199.27003043 -64 193 C-63.28344741 190.29204663 -62.39590477 188.45679239 -61 186 C-60.505 185.01 -60.505 185.01 -60 184 C-59.34 184 -58.68 184 -58 184 C-58 183.01 -58 182.02 -58 181 C-54.15437209 177.69829465 -49.99440152 175.7567275 -45 175 C-44.67 174.34 -44.34 173.68 -44 173 C-26.94954128 170.29357798 -26.94954128 170.29357798 -20 174 C-20 174.66 -20 175.32 -20 176 C-19.09507813 176.07347656 -19.09507813 176.07347656 -18.171875 176.1484375 C-17.37265625 176.22320312 -16.5734375 176.29796875 -15.75 176.375 C-14.96109375 176.44460938 -14.1721875 176.51421875 -13.359375 176.5859375 C-10.914123 177.01507113 -9.15163097 177.78600638 -7 179 C-7.14148989 180.6045556 -7.28835686 182.20863767 -7.4375 183.8125 C-7.51871094 184.70582031 -7.59992188 185.59914063 -7.68359375 186.51953125 C-8 189 -8 189 -9 192 C-9.66 192 -10.32 192 -11 192 C-10.67 192.99 -10.34 193.98 -10 195 C-11.0625 197.1875 -11.0625 197.1875 -13 199 C-17.03261091 199.76811636 -19.62369774 198.80296157 -23.1875 197.0625 C-28.34721303 194.57069319 -33.33284725 194.21185618 -39 194 C-39.33 194.99 -39.66 195.98 -40 197 C-40.66 197 -41.32 197 -42 197 C-41.67 197.99 -41.34 198.98 -41 200 C-40.34 200.33 -39.68 200.66 -39 201 C-39 201.66 -39 202.32 -39 203 C-37.49759766 202.95166016 -37.49759766 202.95166016 -35.96484375 202.90234375 C-26.47089852 203.13618477 -17.26014105 205.53465048 -10.41796875 212.31640625 C-8.34067218 214.78283826 -7.02227992 216.93316023 -6 220 C-4.78900452 204.81955046 -4.88542197 189.6570591 -4.9375 174.4375 C-4.9425268 171.86523525 -4.94708762 169.29296954 -4.95117188 166.72070312 C-4.96207984 160.48044757 -4.9787237 154.24022837 -5 148 C-3.68 148 -2.36 148 -1 148 C-1.00092179 147.24939867 -1.00184359 146.49879734 -1.00279331 145.72545052 C-1.0248543 127.48214156 -1.04141437 109.23883526 -1.05181217 90.99551582 C-1.0569738 82.17327521 -1.06401398 73.3510435 -1.07543945 64.52880859 C-1.08539034 56.84153515 -1.0918544 49.15426815 -1.09408849 41.46698844 C-1.09539491 37.39467248 -1.09847643 33.32237493 -1.10573006 29.25006485 C-1.11249664 25.42031171 -1.11461565 21.59058466 -1.11310768 17.76082611 C-1.11338372 16.35228967 -1.11538508 14.94375239 -1.11920547 13.5352211 C-1.12415258 11.6178983 -1.12239523 9.70056163 -1.12025452 7.78323364 C-1.12117631 6.70842302 -1.1220981 5.6336124 -1.12304783 4.52623177 C-1 2 -1 2 0 0 Z M-43 179 C-44.32 179 -45.64 179 -47 179 C-47 179.66 -47 180.32 -47 181 C-47.99 181 -48.98 181 -50 181 C-51.3743291 182.29103643 -52.70896357 183.6256709 -54 185 C-54.99 185.495 -54.99 185.495 -56 186 C-59.7459359 192.33927614 -59.68663137 198.78109177 -59 206 C-57.73846279 209.72153477 -57.10698345 211.30418183 -53.8125 213.375 C-53.214375 213.58125 -52.61625 213.7875 -52 214 C-52 214.66 -52 215.32 -52 216 C-44.46595398 218.60838688 -38.00180661 220.54249536 -30 220 C-29.67 220.99 -29.34 221.98 -29 223 C-27.7315625 223.61875 -27.7315625 223.61875 -26.4375 224.25 C-25.2309375 225.11625 -25.2309375 225.11625 -24 226 C-23.46149814 229.70220027 -23.50583997 232.01167994 -25.1875 235.375 C-27.41630541 237.37323933 -29.07248709 237.61480093 -32 238 C-32.33 238.33 -32.66 238.66 -33 239 C-34.43528535 238.95840296 -35.86857555 238.84274059 -37.296875 238.6953125 C-38.61171875 238.56189453 -38.61171875 238.56189453 -39.953125 238.42578125 C-40.87609375 238.32652344 -41.7990625 238.22726562 -42.75 238.125 C-44.11125 237.98771484 -44.11125 237.98771484 -45.5 237.84765625 C-49.72405308 237.4091946 -53.84138676 236.87846317 -58 236 C-61.33949284 240.63039069 -61.33949284 240.63039069 -63 246 C-58.18790099 248.29045014 -58.18790099 248.29045014 -53 249 C-53 249.66 -53 250.32 -53 251 C-48.56262288 251.08690253 -44.12546366 251.14035926 -39.6875 251.1875 C-38.42486328 251.21263672 -37.16222656 251.23777344 -35.86132812 251.26367188 C-34.65283203 251.27333984 -33.44433594 251.28300781 -32.19921875 251.29296875 C-30.52605591 251.31653442 -30.52605591 251.31653442 -28.8190918 251.34057617 C-25.61780648 250.95382697 -25.01096408 250.38523619 -23 248 C-19.8125 246.8125 -19.8125 246.8125 -17 246 C-17 245.34 -17 244.68 -17 244 C-16.01 243.67 -15.02 243.34 -14 243 C-10.44606219 236.9856437 -8.07658824 230.87992172 -9.4140625 223.90234375 C-10.65435545 219.87552597 -12.75388486 216.68157338 -16 214 C-16.66 214 -17.32 214 -18 214 C-18 213.34 -18 212.68 -18 212 C-23.06297817 209.63928597 -28.27251392 209.0860583 -33.76171875 208.40820312 C-38.99057665 207.61693348 -41.56188066 206.27280728 -45 202 C-46.28520648 199.25822618 -46.07178531 198.2572307 -45.25 195.3125 C-44 193 -44 193 -41 192 C-38.27901042 191.87631866 -35.59598606 191.81016012 -32.875 191.8125 C-32.11324463 191.81185547 -31.35148926 191.81121094 -30.56665039 191.81054688 C-25.11994914 191.86166234 -20.25145906 192.47230282 -15 194 C-13.515 188.555 -13.515 188.555 -12 183 C-18.92878004 177.88590045 -25.020341 177.83510188 -33.3125 177.875 C-34.13556641 177.87113281 -34.95863281 177.86726562 -35.80664062 177.86328125 C-39.71608758 177.48213842 -39.71608758 177.48213842 -43 179 Z M243 178 C243.66 179.98 244.32 181.96 245 184 C245.66 184 246.32 184 247 184 C248.20628008 186.33214148 249.1654738 188.49642139 250 191 C251.423125 191.433125 251.423125 191.433125 252.875 191.875 C256 193 256 193 257.8125 195 C258.94583561 197.86316364 259.15927922 199.60846582 259.3125 202.625 C259.72952063 208.78763826 262.56250874 215.56250874 267 220 C268.99958364 220.04080783 271.00045254 220.04254356 273 220 C272.94790199 215.64487555 272.85276717 211.29170028 272.75 206.9375 C272.73582031 205.70837891 272.72164063 204.47925781 272.70703125 203.21289062 C272.52155035 196.33154938 272.32830048 191.48500147 268 186 C265.63529449 183.77966538 265.63529449 183.77966538 263 182.125 C262.154375 181.55007813 261.30875 180.97515625 260.4375 180.3828125 C256.30018522 178.035682 252.9704609 177.88130404 248.25 177.9375 C247.26515625 177.94652344 246.2803125 177.95554687 245.265625 177.96484375 C244.14414062 177.98224609 244.14414062 177.98224609 243 178 Z M341 180 C341.66 181.65 342.32 183.3 343 185 C343.66 185 344.32 185 345 185 C345.33 186.98 345.66 188.96 346 191 C347.65 191 349.3 191 351 191 C351.9795958 189.20856793 352.9586633 187.41684696 353.9375 185.625 C354.48277344 184.62726563 355.02804687 183.62953125 355.58984375 182.6015625 C356.4149759 181.07929654 357.22564391 179.54871217 358 178 C355.72942623 177.94601013 353.45848712 177.90721258 351.1875 177.875 C349.92292969 177.85179687 348.65835937 177.82859375 347.35546875 177.8046875 C343.8661976 177.72418082 343.8661976 177.72418082 341 180 Z M525 178 C525 178.99 525 179.98 525 181 C524.34 181 523.68 181 523 181 C522.80664062 181.55429687 522.61328125 182.10859375 522.4140625 182.6796875 C522.15367187 183.40414062 521.89328125 184.12859375 521.625 184.875 C521.36976563 185.59429687 521.11453125 186.31359375 520.8515625 187.0546875 C520 189 520 189 518 191 C518.88042969 191.03738281 519.76085937 191.07476562 520.66796875 191.11328125 C521.82941406 191.17902344 522.99085938 191.24476563 524.1875 191.3125 C525.33605469 191.37050781 526.48460937 191.42851562 527.66796875 191.48828125 C531.18588352 192.02854718 533.15698864 192.89864378 536 195 C537.3125 197.1875 537.3125 197.1875 538 199 C542.75207471 199.43200679 545.78210698 197.98489083 550 196 C549.32575718 190.70429029 549.32575718 190.70429029 547 186 C544.94999129 185.19471111 544.94999129 185.19471111 543 185 C543 184.34 543 183.68 543 183 C542.34 183 541.68 183 541 183 C541 182.34 541 181.68 541 181 C535.47239641 178.89424625 530.93002267 177.62148791 525 178 Z M66 179 C66.0177888 186.29410608 66.0567507 193.58737933 66.13209057 200.88113403 C66.16625407 204.26866352 66.19145368 207.65574718 66.19555664 211.04345703 C66.20486595 214.94620435 66.24590574 218.84754737 66.29296875 222.75 C66.2890361 223.95551514 66.28510345 225.16103027 66.28105164 226.40307617 C66.39920768 233.26382008 66.98557895 238.90635387 72 244 C72.66 244 73.32 244 74 244 C74.33 244.99 74.66 245.98 75 247 C78.51190809 248.22969878 78.51190809 248.22969878 82 249 C82 249.66 82 250.32 82 251 C90.91 251 99.82 251 109 251 C109 250.34 109 249.68 109 249 C112.63 248.01 116.26 247.02 120 246 C120 227.19 120 208.38 120 189 C109.62191461 189.80887541 109.62191461 189.80887541 106 194 C106.3304834 194.97396729 106.6609668 195.94793457 107.00146484 196.95141602 C108.23378973 201.28657105 108.16278219 205.30524622 107.9765625 209.77734375 C107.93902359 210.99436729 107.93902359 210.99436729 107.90072632 212.23597717 C107.81916773 214.80361792 107.72233485 217.37041384 107.625 219.9375 C107.56669467 221.68811757 107.5093929 223.43876888 107.453125 225.18945312 C107.31368563 229.46011308 107.16055418 233.73008384 107 238 C102.59886512 238.64908122 98.32623426 239.18026787 93.875 239.25 C92.88242188 239.27578125 91.88984375 239.3015625 90.8671875 239.328125 C87.5280516 238.94598956 85.69566214 237.9730155 83 236 C81.6875 233.8125 81.6875 233.8125 81 232 C80.34 232 79.68 232 79 232 C79 214.51 79 197.02 79 179 C74.71 179 70.42 179 66 179 Z M434 186 C430.15459469 192.35548306 430.65154838 198.67816928 430.8125 205.9375 C430.82603516 207.09830078 430.83957031 208.25910156 430.85351562 209.45507812 C430.8886859 212.30387052 430.93790713 215.15168844 431 218 C433.48699502 215.67880465 434.23110033 214.29528429 435 211 C435.66 210.67 436.32 210.34 437 210 C438.01987734 208.40890663 438.01987734 208.40890663 438.9453125 206.47265625 C439.47705078 205.40821289 439.47705078 205.40821289 440.01953125 204.32226562 C440.38433594 203.57654297 440.74914062 202.83082031 441.125 202.0625 C441.49753906 201.32064453 441.87007812 200.57878906 442.25390625 199.81445312 C444.2832273 196.07799422 444.2832273 196.07799422 445 192 C445.99 191.67 446.98 191.34 448 191 C449.46584612 188.75188226 449.46584612 188.75188226 450.6875 186.0625 C451.34298828 184.71865234 451.34298828 184.71865234 452.01171875 183.34765625 C453.12932948 181.11731067 453.12932948 181.11731067 453 179 C444.95946708 178.0921979 439.71717414 180.14866834 434 186 Z M269 180 C269.33 180.99 269.66 181.98 270 183 C270 182.01 270 181.02 270 180 C269.67 180 269.34 180 269 180 Z M130 186 C130 187.65 130 189.3 130 191 C132.64 191.66 135.28 192.32 138 193 C138.01458252 194.205354 138.02916504 195.41070801 138.04418945 196.65258789 C138.10238325 201.14620884 138.17961448 205.63933971 138.26245117 210.13256836 C138.29560159 212.07324235 138.323664 214.01401046 138.34643555 215.95483398 C138.38016384 218.75284747 138.43248819 221.5500061 138.48828125 224.34765625 C138.49467117 225.2083522 138.5010611 226.06904816 138.50764465 226.95582581 C138.67163948 233.75220381 140.18715316 238.28072974 144 244 C144.66 244 145.32 244 146 244 C146 244.66 146 245.32 146 246 C151.36000789 248.25684543 155.1977825 249.36263859 161 249 C161 249.66 161 250.32 161 251 C162.98 251 164.96 251 167 251 C167 246.71 167 242.42 167 238 C165.9275 237.87625 164.855 237.7525 163.75 237.625 C160.62136385 237.10356064 158.66519576 236.59911746 156 235 C156 234.34 156 233.68 156 233 C155.34 232.67 154.68 232.34 154 232 C151.32244692 228.28032776 151.74567862 224.11784261 151.8046875 219.734375 C151.8075174 218.94097717 151.81034729 218.14757935 151.81326294 217.33013916 C151.82443221 214.80327083 151.84953056 212.27676068 151.875 209.75 C151.88503402 208.0338593 151.89415913 206.31771302 151.90234375 204.6015625 C151.92436086 200.40090426 151.95886813 196.2005128 152 192 C153.32 191.34 154.64 190.68 156 190 C151.38 189.01 146.76 188.02 142 187 C142 186.67 142 186.34 142 186 C138.04 186 134.08 186 130 186 Z M273 186 C274 188 274 188 274 188 Z M276 193 C277 195 277 195 277 195 Z M102 194 C103 196 103 196 103 196 Z M425 194 C426 196 426 196 426 196 Z M278 196 C277.1589522 199.6464806 276.88235032 202.99950907 276.90234375 206.73828125 C276.90556641 207.80498047 276.90878906 208.87167969 276.91210938 209.97070312 C276.92048828 211.07349609 276.92886719 212.17628906 276.9375 213.3125 C276.94201172 214.43462891 276.94652344 215.55675781 276.95117188 216.71289062 C276.96292687 219.4753151 276.97935923 222.23762998 277 225 C274.69 225 272.38 225 270 225 C270.33 225.66 270.66 226.32 271 227 C271.66 227 272.32 227 273 227 C273.103125 228.093125 273.20625 229.18625 273.3125 230.3125 C274.02290732 234.12286654 274.29246695 234.61737092 277 237 C278.1875 239.6875 278.1875 239.6875 279 242 C279.33 242 279.66 242 280 242 C280.19270079 236.25287037 280.37135351 230.50553835 280.53710938 224.75756836 C280.59543951 222.80302276 280.65757934 220.84858694 280.72363281 218.89428711 C280.81801685 216.08207183 280.89860718 213.26974403 280.9765625 210.45703125 C281.00875885 209.58601273 281.0409552 208.7149942 281.0741272 207.81758118 C281.18287214 203.39446324 281.11115435 200.02416282 279 196 C278.67 196 278.34 196 278 196 Z M94 199 C94 199.66 94 200.32 94 201 C93.401875 201.28875 92.80375 201.5775 92.1875 201.875 C89.80672208 203.04742026 89.80672208 203.04742026 87 205 C85.68 205 84.36 205 83 205 C82.94188227 208.74993479 82.90636407 212.49975352 82.875 216.25 C82.85824219 217.31347656 82.84148437 218.37695312 82.82421875 219.47265625 C82.81777344 220.49746094 82.81132812 221.52226562 82.8046875 222.578125 C82.79421387 223.52075195 82.78374023 224.46337891 82.77294922 225.43457031 C83.09304348 229.05129132 84.18147548 231.16457934 86.703125 233.73828125 C89.83049648 235.4562081 92.20725884 235.29378223 95.75 235.1875 C96.92046875 235.16042969 98.0909375 235.13335937 99.296875 235.10546875 C100.18890625 235.07066406 101.0809375 235.03585937 102 235 C103.26187857 231.2143643 103.01657797 227.76317551 102.87890625 223.83203125 C102.85529526 223.03721848 102.83168427 222.2424057 102.80735779 221.42350769 C102.73081899 218.88631901 102.64675272 216.3494431 102.5625 213.8125 C102.50926951 212.09181215 102.45652917 210.37110906 102.40429688 208.65039062 C102.27521711 204.43339589 102.13938609 200.21666615 102 196 C99.39060143 196 96.3598011 197.97026861 94 199 Z M418 197 C415.98935957 200.32728561 414 204.05418512 414 208 C413.34 208 412.68 208 412 208 C412 208.99 412 209.98 412 211 C411.34 211 410.68 211 410 211 C410 211.99 410 212.98 410 214 C409.34 214 408.68 214 408 214 C407.20046862 217.28696233 406.90341064 218.71023192 408 222 C408.144375 222.61875 408.28875 223.2375 408.4375 223.875 C408.623125 224.57625 408.80875 225.2775 409 226 C409.20625 226.86625 409.4125 227.7325 409.625 228.625 C410.86858339 231.33428196 410.86858339 231.33428196 414.25 232.3125 C417.61925558 232.93019686 420.58856809 233.16641131 424 233 C424.67408308 231.73308493 425.33900497 230.46129251 426 229.1875 C426.37125 228.47980469 426.7425 227.77210938 427.125 227.04296875 C428.19685358 224.91079271 428.19685358 224.91079271 428 222 C427.34 222 426.68 222 426 222 C426 213.75 426 205.5 426 197 C422.51951303 195.83983768 421.3592199 195.52522053 418 197 Z M180 203 C179.92537272 207.28666736 179.87117492 211.57298207 179.83520508 215.86010742 C179.82019687 217.31590368 179.79978367 218.77165532 179.77368164 220.22729492 C179.73694324 222.33002789 179.7201944 224.43215885 179.70703125 226.53515625 C179.6913208 227.797229 179.67561035 229.05930176 179.65942383 230.35961914 C180.23169838 236.47659826 182.61328149 241.61328149 187 246 C191.62039314 248.44096241 195.81867222 249.47129308 201 250 C201 250.33 201 250.66 201 251 C203.64 251 206.28 251 209 251 C208.85851011 249.3954444 208.71164314 247.79136233 208.5625 246.1875 C208.48128906 245.29417969 208.40007812 244.40085937 208.31640625 243.48046875 C208.06510233 240.87256441 208.06510233 240.87256441 207 238 C204.66836622 237.32741333 202.3347961 236.66152556 200 236 C196.5461824 233.69745493 194.50537583 231.85669294 193 228 C192.83254283 225.89992235 192.73452486 223.79371858 192.6875 221.6875 C192.3130064 215.52916083 191.24895202 212.45621797 187 208 C186.34 208 185.68 208 185 208 C185 207.34 185 206.68 185 206 C184.360625 205.87625 183.72125 205.7525 183.0625 205.625 C182.381875 205.41875 181.70125 205.2125 181 205 C180.67 204.34 180.34 203.68 180 203 Z M510 205 C504.01114459 214.07942906 504.01114459 214.07942906 501 224 C500.34 224 499.68 224 499 224 C497.05180202 229.76450115 497.05180202 229.76450115 498.125 235.625 C498.74375 236.73875 499.3625 237.8525 500 239 C500.515625 240.010625 501.03125 241.02125 501.5625 242.0625 C505.65580776 246.99546064 509.75085614 250.40621746 516.30615234 251.32226562 C518.94013388 251.52204664 521.54613675 251.60431926 524.1875 251.625 C525.04279297 251.6357959 525.89808594 251.6465918 526.77929688 251.65771484 C532.67060386 251.52611028 536.110305 250.27021801 541 247 C541.886875 246.566875 542.77375 246.13375 543.6875 245.6875 C547.04401754 243.23814936 548.21813654 240.76171175 550 237 C550 235.68 550 234.36 550 233 C548.59054634 232.43983252 547.1719969 231.90251498 545.75 231.375 C544.96109375 231.07335937 544.1721875 230.77171875 543.359375 230.4609375 C541.00297994 229.79505001 541.00297994 229.79505001 538.83203125 230.75390625 C536.77822243 232.0206632 536.77822243 232.0206632 534.9375 234.5625 C530.62121234 238.1441004 526.48194895 238.13684748 521 238 C517.17077309 237.31620948 515.68185945 236.92352856 513.37573242 233.80004883 C511.80008778 230.59311566 511.57594044 228.38318184 511.48828125 224.82421875 C511.43510742 223.08881836 511.43510742 223.08881836 511.38085938 221.31835938 C511.35830078 220.12017578 511.33574219 218.92199219 511.3125 217.6875 C511.26125977 215.8612207 511.26125977 215.8612207 511.20898438 213.99804688 C511.12665183 210.99878986 511.05745079 207.99981986 511 205 C510.67 205 510.34 205 510 205 Z M285 209 C285.00523682 209.79059814 285.01047363 210.58119629 285.01586914 211.39575195 C285.03686642 215.03465964 285.04973177 218.6735545 285.0625 222.3125 C285.07087891 223.55580078 285.07925781 224.79910156 285.08789062 226.08007812 C285.10537245 232.7406541 284.91464628 239.21166972 284.02124023 245.81713867 C283.79233785 248.29817403 283.79233785 248.29817403 286 251 C286 250.34 286 249.68 286 249 C286.66 249 287.32 249 288 249 C288 249.66 288 250.32 288 251 C291.3 251 294.6 251 298 251 C297.98839844 250.20335937 297.97679687 249.40671875 297.96484375 248.5859375 C297.88721363 239.46994322 297.88721363 239.46994322 298.75 235.875 C299.15781657 231.18510945 297.10494584 227.13551197 295 223 C293.15811388 220.94729537 293.15811388 220.94729537 291 220 C290.71125 218.906875 290.4225 217.81375 290.125 216.6875 C288.95072886 212.83850017 287.8789938 211.64004897 285 209 Z M-5 225 C-5 228.3 -5 231.6 -5 235 C-4.67 235 -4.34 235 -4 235 C-4 231.7 -4 228.4 -4 225 C-4.33 225 -4.66 225 -5 225 Z M198 225 C198.33 226.98 198.66 228.96 199 231 C199.99 231.33 200.98 231.66 202 232 C200.92598892 229.08482708 200.22189824 227.22189824 198 225 Z M403 225 C402.67 225.99 402.34 226.98 402 228 C401.34 228 400.68 228 400 228 C399.13153169 229.74294678 398.28069373 231.49468663 397.4375 233.25 C396.96183594 234.22453125 396.48617188 235.1990625 395.99609375 236.203125 C394.83683387 238.86787219 394.83683387 238.86787219 395.16015625 241.296875 C395.57587891 242.13992188 395.57587891 242.13992188 396 243 C396.99 243.33 397.98 243.66 399 244 C399 244.66 399 245.32 399 246 C402.96697886 247.80317221 406.6822542 248.49202991 411 249 C411 249.66 411 250.32 411 251 C414.64907629 249.78364124 414.8828659 248.92757323 416.625 245.625 C417.05039062 244.83351563 417.47578125 244.04203125 417.9140625 243.2265625 C419.10047348 240.91798142 419.10047348 240.91798142 420 238 C419.32453125 237.84144531 418.6490625 237.68289063 417.953125 237.51953125 C410.63811923 235.60621327 410.63811923 235.60621327 407.5 232.625 C406.07339533 230.12844183 404.93217226 227.71883574 404 225 C403.67 225 403.34 225 403 225 Z M303 241 C302.97291433 242.60407328 302.95356517 244.2082785 302.9375 245.8125 C302.92589844 246.70582031 302.91429687 247.59914063 302.90234375 248.51953125 C302.88990033 251.13413791 302.88990033 251.13413791 304 254 C298.39 254 292.78 254 287 254 C288.90511728 258.44527366 290.80441099 262.71337384 293 267 C293.66 267 294.32 267 295 267 C295 268.32 295 269.64 295 271 C295.66 271 296.32 271 297 271 C297.103125 271.5775 297.20625 272.155 297.3125 272.75 C298.09792798 275.32049158 299.30504197 276.93657284 301 279 C301.99 278.505 301.99 278.505 303 278 C303 276.68 303 275.36 303 274 C303.66 274 304.32 274 305 274 C306.17666004 271.75474054 307.3414074 269.50455858 308.5 267.25 C308.83386719 266.61578125 309.16773438 265.9815625 309.51171875 265.328125 C311.27175533 261.87989007 312 259.95159931 312 256 C311.67 255.01 311.34 254.02 311 253 C310.34 253 309.68 253 309 253 C309 251.68 309 250.36 309 249 C308.34 249 307.68 249 307 249 C306.855625 248.236875 306.71125 247.47375 306.5625 246.6875 C306.0367406 243.91827092 306.0367406 243.91827092 305 241 C304.34 241 303.68 241 303 241 Z M391 245 C391 245.99 391 246.98 391 248 C390.34 248 389.68 248 389 248 C388.67 249.98 388.34 251.96 388 254 C387.34 254 386.68 254 386 254 C385.42917964 259.70820358 387.32475608 263.17675001 390 268 C390.6722241 269.33054011 391.34047289 270.66312072 392 272 C392.66 272 393.32 272 394 272 C394.66 274.31 395.32 276.62 396 279 C396.66 279 397.32 279 398 279 C398.38671875 278.28714844 398.7734375 277.57429688 399.171875 276.83984375 C403.93290684 268.08378766 403.93290684 268.08378766 406.375 263.9375 C408.1613538 261.26782403 408.1613538 261.26782403 408 259 C408.66 258.67 409.32 258.34 410 258 C410 257.34 410 256.68 410 256 C410.66 255.34 411.32 254.68 412 254 C411.26394531 253.87882813 410.52789063 253.75765625 409.76953125 253.6328125 C408.30580078 253.38144531 408.30580078 253.38144531 406.8125 253.125 C405.84957031 252.96257812 404.88664062 252.80015625 403.89453125 252.6328125 C401.08967396 252.01960483 398.62775253 251.14333657 396 250 C396 249.34 396 248.68 396 248 C395.34 248 394.68 248 394 248 C393.67 247.01 393.34 246.02 393 245 C392.34 245 391.68 245 391 245 Z " fill="#000000" transform="translate(104,108)"/>
<path d="M0 0 C0.89009766 -0.00128906 1.78019531 -0.00257813 2.69726562 -0.00390625 C3.63376953 -0.00003906 4.57027344 0.00382813 5.53515625 0.0078125 C6.46779297 0.00394531 7.40042969 0.00007812 8.36132812 -0.00390625 C9.25271484 -0.00261719 10.14410156 -0.00132812 11.0625 0 C11.88355225 0.00112793 12.70460449 0.00225586 13.55053711 0.00341797 C15.59765625 0.1328125 15.59765625 0.1328125 17.59765625 1.1328125 C17.92765625 16.3128125 18.25765625 31.4928125 18.59765625 47.1328125 C20.08265625 46.6378125 20.08265625 46.6378125 21.59765625 46.1328125 C21.59765625 45.1428125 21.59765625 44.1528125 21.59765625 43.1328125 C22.96069921 42.01441828 24.33816851 40.91138047 25.76171875 39.87109375 C27.77711246 38.13982371 27.77711246 38.13982371 29.12109375 35.36328125 C31.19369605 31.83804721 32.91649779 28.99892999 36.59765625 27.1328125 C44.80570422 25.69738727 53.33547856 26.46265288 61.59765625 27.1328125 C61.59765625 29.1128125 61.59765625 31.0928125 61.59765625 33.1328125 C60.11265625 33.6278125 60.11265625 33.6278125 58.59765625 34.1328125 C57.57153676 35.78352646 56.57457482 37.45251256 55.59765625 39.1328125 C53.53515625 41.4453125 53.53515625 41.4453125 51.59765625 43.1328125 C50.93765625 43.1328125 50.27765625 43.1328125 49.59765625 43.1328125 C49.37078125 43.8546875 49.14390625 44.5765625 48.91015625 45.3203125 C47.64352638 48.03451936 46.3230134 49.51605905 44.17578125 51.546875 C42.06648787 53.66661043 40.14425033 55.9041811 38.22265625 58.1953125 C37.51367188 59.03191406 36.8046875 59.86851562 36.07421875 60.73046875 C34.3784713 62.96909707 34.3784713 62.96909707 34.7421875 65.27734375 C35.94934622 67.89561038 37.78221193 69.90742914 39.59765625 72.1328125 C39.59765625 72.7928125 39.59765625 73.4528125 39.59765625 74.1328125 C40.25765625 74.1328125 40.91765625 74.1328125 41.59765625 74.1328125 C43 75.99609375 43 75.99609375 44.53515625 78.4453125 C46.64509645 81.80840048 46.64509645 81.80840048 49.2890625 84.73828125 C50.59765625 86.1328125 50.59765625 86.1328125 50.59765625 89.1328125 C51.58765625 89.4628125 52.57765625 89.7928125 53.59765625 90.1328125 C56.36379114 93.24471425 58.50466267 96.54482351 60.59765625 100.1328125 C60.92765625 100.4628125 61.25765625 100.7928125 61.59765625 101.1328125 C61.59765625 103.4428125 61.59765625 105.7528125 61.59765625 108.1328125 C54.00765625 108.1328125 46.41765625 108.1328125 38.59765625 108.1328125 C38.26765625 106.8128125 37.93765625 105.4928125 37.59765625 104.1328125 C36.60765625 103.8028125 35.61765625 103.4728125 34.59765625 103.1328125 C32.27500013 100.55208347 31.59765625 99.68105182 31.59765625 96.1328125 C30.93765625 96.1328125 30.27765625 96.1328125 29.59765625 96.1328125 C26.59765625 92.67127404 26.59765625 92.67127404 26.59765625 90.1328125 C25.93765625 89.8028125 25.27765625 89.4728125 24.59765625 89.1328125 C23.51747173 87.8091667 22.480127 86.4501094 21.47265625 85.0703125 C20.93382812 84.33683594 20.395 83.60335937 19.83984375 82.84765625 C19.42992187 82.28175781 19.02 81.71585937 18.59765625 81.1328125 C18.5726001 81.91519287 18.54754395 82.69757324 18.52172852 83.50366211 C18.40615837 87.02606199 18.28325676 90.5481681 18.16015625 94.0703125 C18.12083984 95.30201172 18.08152344 96.53371094 18.04101562 97.80273438 C17.99912109 98.97255859 17.95722656 100.14238281 17.9140625 101.34765625 C17.87740479 102.43167725 17.84074707 103.51569824 17.80297852 104.63256836 C17.59765625 107.1328125 17.59765625 107.1328125 16.59765625 108.1328125 C13.29248691 108.38317224 9.97369584 108.31803202 6.66015625 108.3203125 C5.72751953 108.33255859 4.79488281 108.34480469 3.83398438 108.35742188 C2.4969043 108.36032227 2.4969043 108.36032227 1.1328125 108.36328125 C0.31176025 108.36739014 -0.50929199 108.37149902 -1.35522461 108.37573242 C-3.40234375 108.1328125 -3.40234375 108.1328125 -5.40234375 106.1328125 C-5.65123272 104.24968624 -5.65123272 104.24968624 -5.64958191 101.91282654 C-5.6537764 101.02803619 -5.65797089 100.14324585 -5.66229248 99.23164368 C-5.65667297 98.25857773 -5.65105347 97.28551178 -5.64526367 96.28295898 C-5.64716202 95.26014832 -5.64906036 94.23733765 -5.65101624 93.18353271 C-5.65473212 89.79024683 -5.6440089 86.39717323 -5.6328125 83.00390625 C-5.63162114 80.65503464 -5.63116744 78.30616255 -5.63142395 75.95729065 C-5.62985772 71.03017198 -5.62155686 66.10312582 -5.6081543 61.17602539 C-5.59115495 54.8447369 -5.58734013 48.51352814 -5.58809948 42.18221951 C-5.58782821 37.331113 -5.58235412 32.48002409 -5.57509804 27.62892342 C-5.57190499 25.29361161 -5.56994249 22.9582978 -5.56920433 20.62298393 C-5.56704801 17.36637818 -5.55831946 14.10985883 -5.54760742 10.85327148 C-5.54806061 9.8781813 -5.54851379 8.90309113 -5.54898071 7.89845276 C-5.54471573 7.01648224 -5.54045074 6.13451172 -5.53605652 5.22581482 C-5.53438067 4.45502814 -5.53270483 3.68424147 -5.5309782 2.89009762 C-5.27016306 -0.6729181 -3.04227058 0.0041851 0 0 Z M-0.40234375 5.1328125 C-0.40234375 37.1428125 -0.40234375 69.1528125 -0.40234375 102.1328125 C3.88765625 102.4628125 8.17765625 102.7928125 12.59765625 103.1328125 C12.64664063 101.44671875 12.695625 99.760625 12.74609375 98.0234375 C12.82112962 95.80987934 12.8966771 93.59633848 12.97265625 91.3828125 C13.00359375 90.27164063 13.03453125 89.16046875 13.06640625 88.015625 C13.10507812 86.94570313 13.14375 85.87578125 13.18359375 84.7734375 C13.21501465 83.78891602 13.24643555 82.80439453 13.27880859 81.79003906 C13.59867883 79.12429049 14.24134246 77.42664845 15.59765625 75.1328125 C18.6526032 75.44759589 20.15900935 75.63195366 22.22265625 77.98828125 C22.67640625 78.75785156 23.13015625 79.52742188 23.59765625 80.3203125 C26.02750439 84.2406345 28.46616214 87.74036055 31.59765625 91.1328125 C32.25765625 91.1328125 32.91765625 91.1328125 33.59765625 91.1328125 C33.70722656 91.70386719 33.81679688 92.27492188 33.9296875 92.86328125 C35.24784 97.34191636 37.6675064 100.61075774 41.59765625 103.1328125 C46.3962159 103.52570767 50.86987852 102.97214058 55.59765625 102.1328125 C53.61765625 98.6678125 53.61765625 98.6678125 51.59765625 95.1328125 C50.93765625 95.1328125 50.27765625 95.1328125 49.59765625 95.1328125 C49.41203125 94.4728125 49.22640625 93.8128125 49.03515625 93.1328125 C47.28228937 89.47465553 44.91269031 86.94555159 42.15625 84 C40.59765625 82.1328125 40.59765625 82.1328125 39.59765625 79.1328125 C38.93765625 79.1328125 38.27765625 79.1328125 37.59765625 79.1328125 C37.34371094 78.40191406 37.08976563 77.67101562 36.828125 76.91796875 C35.15788107 73.13738487 32.64680439 70.42210805 29.9609375 67.31640625 C28.59765625 65.1328125 28.59765625 65.1328125 28.765625 62.91796875 C29.59765625 61.1328125 29.59765625 61.1328125 31.59765625 60.1328125 C31.98953125 59.4521875 32.38140625 58.7715625 32.78515625 58.0703125 C35.74751538 53.2692477 39.56694493 49.12761733 43.5859375 45.1796875 C45.68599625 43.04292869 47.51513529 40.81427656 49.34765625 38.4453125 C49.96125 37.65769531 50.57484375 36.87007813 51.20703125 36.05859375 C52.695228 34.39359018 52.695228 34.39359018 52.59765625 33.1328125 C43.62344734 32.06387292 43.62344734 32.06387292 35.37109375 34.5859375 C33.9122836 36.36643399 32.76678255 38.15461692 31.59765625 40.1328125 C31.05625 40.66261719 30.51484375 41.19242187 29.95703125 41.73828125 C28.36498191 43.04692687 28.36498191 43.04692687 28.59765625 45.1328125 C27.93765625 45.1328125 27.27765625 45.1328125 26.59765625 45.1328125 C25.11619999 46.82026149 25.11619999 46.82026149 23.66015625 48.9453125 C21.78612777 51.57662103 19.88465884 53.85884126 17.59765625 56.1328125 C17.26765625 56.7928125 16.93765625 57.4528125 16.59765625 58.1328125 C14.61765625 58.6278125 14.61765625 58.6278125 12.59765625 59.1328125 C12.59765625 41.3128125 12.59765625 23.4928125 12.59765625 5.1328125 C8.30765625 5.1328125 4.01765625 5.1328125 -0.40234375 5.1328125 Z " fill="#000000" transform="translate(667.40234375,252.8671875)"/>
<path d="M0 0 C0.99 0 1.98 0 3 0 C3 0.66 3 1.32 3 2 C2.01 2 1.02 2 0 2 C0 1.34 0 0.68 0 0 Z " fill="#000000" transform="translate(463,458)"/>
<path d="M0 0 C0.66 0 1.32 0 2 0 C2 0.66 2 1.32 2 2 C1.34 2 0.68 2 0 2 C0 1.34 0 0.68 0 0 Z " fill="#000000" transform="translate(96,363)"/>
<path d="M0 0 C1 4 1 4 1 4 Z " fill="#000000" transform="translate(237,331)"/>
<path d="" fill="#000000" transform="translate(0,0)"/>
<path d="" fill="#000000" transform="translate(0,0)"/>
<path d="M0 0 C2 1 2 1 2 1 Z " fill="#000000" transform="translate(197,310)"/>
<path d="" fill="#000000" transform="translate(0,0)"/>
<path d="M0 0 C2 1 2 1 2 1 Z " fill="#000000" transform="translate(225,230)"/>
<path d="" fill="#000000" transform="translate(0,0)"/>
<path d="" fill="#000000" transform="translate(0,0)"/>
<path d="" fill="#000000" transform="translate(0,0)"/>
<path d="" fill="#000000" transform="translate(0,0)"/>
<path d="" fill="#000000" transform="translate(0,0)"/>
<path d="" fill="#000000" transform="translate(0,0)"/>
<path d="" fill="#000000" transform="translate(0,0)"/>
<path d="" fill="#000000" transform="translate(0,0)"/>
<path d="" fill="#000000" transform="translate(0,0)"/>
<path d="" fill="#000000" transform="translate(0,0)"/>
</svg>
