<?xml version="1.0" encoding="UTF-8"?>
<svg version="1.1" xmlns="http://www.w3.org/2000/svg" width="749" height="591">
<path d="M0 0 C54 0 54 0 56 1 C56.33 49.51 56.66 98.02 57 148 C62.28 148 67.56 148 73 148 C73.33 136.78 73.66 125.56 74 114 C76.475 113.505 76.475 113.505 79 113 C79 112.34 79 111.68 79 111 C83.17737474 109.40861915 86.53160785 108.78721942 91 109 C91 108.34 91 107.68 91 107 C99.415 106.01 99.415 106.01 108 105 C108 104.67 108 104.34 108 104 C116.58 104 125.16 104 134 104 C134 104.66 134 105.32 134 106 C134.56847656 105.98839844 135.13695312 105.97679687 135.72265625 105.96484375 C142.89630097 105.88101151 149.19822687 106.59103868 156 109 C158.32666846 109.69234871 160.66228882 110.34544087 163 111 C163 111.66 163 112.32 163 113 C165.64 113.33 168.28 113.66 171 114 C171 114.66 171 115.32 171 116 C171.78375 116.144375 172.5675 116.28875 173.375 116.4375 C176 117 176 117 178 118 C178 118.66 178 119.32 178 120 C180.97 120.495 180.97 120.495 184 121 C184 121.66 184 122.32 184 123 C185.32 123.33 186.64 123.66 188 124 C188 124.66 188 125.32 188 126 C188.7425 126.268125 189.485 126.53625 190.25 126.8125 C192.89061949 127.95276751 194.85552844 129.09380306 197 131 C197 131.66 197 132.32 197 133 C198.32 133.33 199.64 133.66 201 134 C201 134.66 201 135.32 201 136 C201.66 136 202.32 136 203 136 C203 136.66 203 137.32 203 138 C203.99 138 204.98 138 206 138 C206 138.99 206 139.98 206 141 C206.639375 141.2475 207.27875 141.495 207.9375 141.75 C210 143 210 143 210.62890625 145.078125 C210.75136719 145.71234375 210.87382812 146.3465625 211 147 C212.03898437 146.95359375 213.07796875 146.9071875 214.1484375 146.859375 C222.60618664 146.59963606 229.35293343 146.88234877 237 151 C237 151.66 237 152.32 237 153 C237.66 153 238.32 153 239 153 C239 152.01 239 151.02 239 150 C238.34 150 237.68 150 237 150 C236.67 148.02 236.34 146.04 236 144 C235.01 143.67 234.02 143.34 233 143 C232.67 141.02 232.34 139.04 232 137 C231.01 136.67 230.02 136.34 229 136 C229 135.01 229 134.02 229 133 C228.34 133 227.68 133 227 133 C226.16180842 131.37750059 225.3295884 129.75191503 224.5 128.125 C224.0359375 127.22007812 223.571875 126.31515625 223.09375 125.3828125 C222 123 222 123 222 121 C221.34 121 220.68 121 220 121 C219.66226562 120.30132812 219.32453125 119.60265625 218.9765625 118.8828125 C218.53054688 117.97273438 218.08453125 117.06265625 217.625 116.125 C217.18414062 115.22007812 216.74328125 114.31515625 216.2890625 113.3828125 C215.09497301 110.90465528 215.09497301 110.90465528 213 109 C213.33 107.35 213.66 105.7 214 104 C234.13 104 254.26 104 275 104 C275 104.66 275 105.32 275 106 C275.66 106 276.32 106 277 106 C277.33 106.99 277.66 107.98 278 109 C278.66 109.33 279.32 109.66 280 110 C280.625 113.0625 280.625 113.0625 281 116 C281.66 116 282.32 116 283 116 C283.83819158 117.62249941 284.6704116 119.24808497 285.5 120.875 C285.9640625 121.77992188 286.428125 122.68484375 286.90625 123.6171875 C288 126 288 126 288 128 C288.66 128 289.32 128 290 128 C291.5 130.25 291.5 130.25 293 133 C293.391875 133.70125 293.78375 134.4025 294.1875 135.125 C295 137 295 137 295 140 C295.66 140 296.32 140 297 140 C297.33 140.99 297.66 141.98 298 143 C298.66 143.33 299.32 143.66 300 144 C300.625 147.0625 300.625 147.0625 301 150 C301.83789062 149.50886719 302.67578125 149.01773438 303.5390625 148.51171875 C307.46250831 146.79797888 310.12063208 146.69209336 314.375 146.8125 C315.62023437 146.83957031 316.86546875 146.86664063 318.1484375 146.89453125 C319.08945312 146.92933594 320.03046875 146.96414063 321 147 C321.33 145.68 321.66 144.36 322 143 C322.66 143 323.32 143 324 143 C324.26554687 142.29488281 324.53109375 141.58976563 324.8046875 140.86328125 C326.06498967 137.84432214 327.53957994 135.04814924 329.125 132.1875 C329.66382813 131.21167969 330.20265625 130.23585938 330.7578125 129.23046875 C331.37269531 128.12638672 331.37269531 128.12638672 332 127 C332.66 127 333.32 127 334 127 C334.12375 126.030625 334.2475 125.06125 334.375 124.0625 C334.684375 122.5465625 334.684375 122.5465625 335 121 C335.66 120.67 336.32 120.34 337 120 C337.93393441 118.344389 338.80102783 116.65049478 339.625 114.9375 C340.07101562 114.01839844 340.51703125 113.09929687 340.9765625 112.15234375 C341.31429688 111.44207031 341.65203125 110.73179687 342 110 C342.66 110 343.32 110 344 110 C344.33 108.68 344.66 107.36 345 106 C345.66 106 346.32 106 347 106 C347 105.34 347 104.68 347 104 C354.80575195 103.97687208 362.61149595 103.95908262 370.41727352 103.94818783 C374.0414596 103.94295998 377.6656223 103.93586413 381.28979492 103.92456055 C384.78459975 103.91372816 388.27938204 103.90772242 391.77420235 103.90512276 C393.76239389 103.90236449 395.75057631 103.89455312 397.73875427 103.88670349 C398.93992386 103.88662796 400.14109344 103.88655243 401.37866211 103.88647461 C402.44233505 103.884254 403.506008 103.88203339 404.60191345 103.87974548 C407 104 407 104 408 105 C408.04063832 106.66617115 408.042721 108.33388095 408 110 C407.34 110 406.68 110 406 110 C405.67 111.32 405.34 112.64 405 114 C404.34 114 403.68 114 403 114 C402.87625 114.969375 402.7525 115.93875 402.625 116.9375 C402.315625 118.4534375 402.315625 118.4534375 402 120 C401.34 120.33 400.68 120.66 400 121 C398.43010938 123.92448195 397.04562033 126.91873375 395.6328125 129.921875 C394.02528723 132.95232933 392.15624847 135.34718809 390 138 C388.74443113 141.17921787 388.74443113 141.17921787 388 144 C387.34 144 386.68 144 386 144 C385.731875 144.680625 385.46375 145.36125 385.1875 146.0625 C383.83946694 149.39710809 382.42463702 152.69743237 381 156 C380.34 156 379.68 156 379 156 C379.33 158.31 379.66 160.62 380 163 C380.391875 161.948125 380.78375 160.89625 381.1875 159.8125 C382.85872027 156.00797091 384.63700581 153.55879992 388 151 C390.36425138 150.26167576 392.66667396 149.7637957 395.109375 149.359375 C397.00475432 149.18278703 397.00475432 149.18278703 398 148 C399.11375 148.020625 400.2275 148.04125 401.375 148.0625 C405.09806415 148.32482194 405.09806415 148.32482194 408 146 C409.21284876 142.94570927 409.21284876 142.94570927 410 140 C410.66 140 411.32 140 412 140 C412.0825 139.29875 412.165 138.5975 412.25 137.875 C413.17702638 134.32139888 414.91207023 132.00907526 417 129 C418.02930047 127.01492052 419.03863929 125.01885749 420 123 C420.66 123 421.32 123 422 123 C422.4021875 121.700625 422.4021875 121.700625 422.8125 120.375 C423.97111987 117.08208036 425.38209839 114.08872125 427 111 C427.66 111 428.32 111 429 111 C429.33 109.35 429.66 107.7 430 106 C430.99 106 431.98 106 433 106 C433 105.34 433 104.68 433 104 C452.8 104 472.6 104 493 104 C494.19872272 107.59616816 493.72500287 108.28921639 492.1875 111.625 C491.83042969 112.42164063 491.47335937 113.21828125 491.10546875 114.0390625 C490 116 490 116 488 117 C487.27306096 118.97888961 486.60183749 120.97954558 486 123 C485.34 123 484.68 123 484 123 C483.88527344 123.5671875 483.77054688 124.134375 483.65234375 124.71875 C482.92962283 127.2461094 481.87506245 129.22541106 480.5625 131.5 C478.95673049 134.29931162 477.41704403 137.10000291 476 140 C475.34 140 474.68 140 474 140 C473.34 141.98 472.68 143.96 472 146 C473.98 146.66 475.96 147.32 478 148 C478 148.66 478 149.32 478 150 C479.98 150.33 481.96 150.66 484 151 C484 151.66 484 152.32 484 153 C484.8971875 153.433125 484.8971875 153.433125 485.8125 153.875 C488 155 488 155 491 157 C491 157.99 491 158.98 491 160 C491.66 160 492.32 160 493 160 C493.33 163.3 493.66 166.6 494 170 C492.63875 170.268125 491.2775 170.53625 489.875 170.8125 C486.74633756 171.49136072 484.53325159 172.2333742 481.625 173.6875 C480.75875 174.120625 479.8925 174.55375 479 175 C478.01 174.67 477.02 174.34 476 174 C475.67 172.02 475.34 170.04 475 168 C473.68 168 472.36 168 471 168 C470.67 167.34 470.34 166.68 470 166 C466.97065509 165.34227572 466.97065509 165.34227572 464 165 C464 165.66 464 166.32 464 167 C462.68 167.33 461.36 167.66 460 168 C458.9196739 171.44831362 458.96245059 174.48221344 459.12109375 178.078125 C459.16943359 179.23828125 459.21777344 180.3984375 459.26757812 181.59375 C459.32365234 182.8003125 459.37972656 184.006875 459.4375 185.25 C459.48970703 186.47203125 459.54191406 187.6940625 459.59570312 188.953125 C459.72529214 191.96901481 459.86025576 194.98456646 460 198 C461.44005481 198.018636 462.88017941 198.0319305 464.3203125 198.04296875 C465.12227051 198.05094482 465.92422852 198.0589209 466.75048828 198.06713867 C469.63493654 197.98104976 471.53697518 197.52128004 474 196 C475.82619087 193.48635244 475.82619087 193.48635244 477 191 C478.258125 191.12375 479.51625 191.2475 480.8125 191.375 C481.52019531 191.44460938 482.22789062 191.51421875 482.95703125 191.5859375 C485 192 485 192 488 194 C491.12521833 194.16699232 491.12521833 194.16699232 494 194 C494.45356243 200.46326465 493.59378942 203.60931587 490 209 C489.34 209 488.68 209 488 209 C488 209.66 488 210.32 488 211 C483.15192176 214.9550112 478.01363233 216.50383144 472 218 C470.329375 218.433125 470.329375 218.433125 468.625 218.875 C461.59676723 219.11735285 451.58032567 217.22306975 446.19921875 212.37890625 C445.70035156 211.77949219 445.20148438 211.18007813 444.6875 210.5625 C444.17574219 209.96566406 443.66398437 209.36882812 443.13671875 208.75390625 C442 207 442 207 442 204 C440.68 204 439.36 204 438 204 C436.4254844 205.79450402 436.4254844 205.79450402 435.1875 208.25 C434.67960937 209.1575 434.17171875 210.065 433.6484375 211 C433.10445312 211.99 432.56046875 212.98 432 214 C430.77470314 216.08561168 429.54552379 218.16894719 428.3125 220.25 C426.04941266 224.09984972 423.9640101 227.98890988 422 232 C421.34 232 420.68 232 420 232 C419.87496094 232.56332031 419.74992187 233.12664062 419.62109375 233.70703125 C418.95875861 236.15225595 418.07861701 238.36768569 417.0625 240.6875 C416.72347656 241.47511719 416.38445312 242.26273438 416.03515625 243.07421875 C415 245 415 245 413 246 C412.67 246.99 412.34 247.98 412 249 C411.34 249 410.68 249 410 249 C409.773125 249.825 409.54625 250.65 409.3125 251.5 C407.95884778 255.10973924 406.24339016 257.97507771 404.12109375 261.16796875 C402.83810114 263.10995074 402.83810114 263.10995074 402 266 C401.34 266 400.68 266 400 266 C399.855625 266.598125 399.71125 267.19625 399.5625 267.8125 C399.1127561 269.56150404 398.57107659 271.28677023 398 273 C397.34 273 396.68 273 396 273 C395.9175 273.70125 395.835 274.4025 395.75 275.125 C394.82123251 278.68527538 393.19727086 281.07030552 391 284 C390.34 284.33 389.68 284.66 389 285 C388.34444881 287.52733235 388.34444881 287.52733235 388 290 C387.34 290 386.68 290 386 290 C385.67 291.65 385.34 293.3 385 295 C384.34 295 383.68 295 383 295 C382.34 297.31 381.68 299.62 381 302 C380.34 302 379.68 302 379 302 C378.67 303.65 378.34 305.3 378 307 C377.34 307 376.68 307 376 307 C375.896875 307.7425 375.79375 308.485 375.6875 309.25 C374.94909194 312.20363226 373.8776808 313.652899 372 316 C371.67 316.99 371.34 317.98 371 319 C370.34 319 369.68 319 369 319 C368.87496094 319.57363281 368.74992187 320.14726562 368.62109375 320.73828125 C367.98400072 323.05826154 367.13248654 325.03541386 366.0625 327.1875 C365.72347656 327.88230469 365.38445312 328.57710938 365.03515625 329.29296875 C364 331 364 331 362 332 C361.34786708 334.02463255 361.34786708 334.02463255 361 336 C360.34 336 359.68 336 359 336 C359.33 336.99 359.66 337.98 360 339 C359.34 339 358.68 339 358 339 C358 339.66 358 340.32 358 341 C357.34 341 356.68 341 356 341 C356 342.32 356 343.64 356 345 C354.0625 344.6875 354.0625 344.6875 352 344 C351.67 343.01 351.34 342.02 351 341 C350.34 341 349.68 341 349 341 C348.16180842 339.37750059 347.3295884 337.75191503 346.5 336.125 C346.0359375 335.22007812 345.571875 334.31515625 345.09375 333.3828125 C344 331 344 331 344 329 C343.34 329 342.68 329 342 329 C341.67 327.35 341.34 325.7 341 324 C340.34 324 339.68 324 339 324 C338.34 321.69 337.68 319.38 337 317 C336.34 317 335.68 317 335 317 C334.67 315.35 334.34 313.7 334 312 C333.34 312 332.68 312 332 312 C331 310 330 308 329 306 C328.608125 305.278125 328.21625 304.55625 327.8125 303.8125 C327 302 327 302 327 299 C326.34 299 325.68 299 325 299 C317 288.33333333 317 288.33333333 317 283 C316.34 283 315.68 283 315 283 C312 277.25 312 277.25 312 275 C311.34 275 310.68 275 310 275 C308.79371992 277.33214148 307.8345262 279.49642139 307 282 C306.34 282 305.68 282 305 282 C304.855625 282.598125 304.71125 283.19625 304.5625 283.8125 C304.1127561 285.56150404 303.57107659 287.28677023 303 289 C302.34 289 301.68 289 301 289 C300.896875 289.721875 300.79375 290.44375 300.6875 291.1875 C299.93206053 294.27793421 298.84468685 296.41743841 297 299 C296.34 299 295.68 299 295 299 C294.855625 299.78375 294.71125 300.5675 294.5625 301.375 C294 304 294 304 293 306 C292.34 306 291.68 306 291 306 C290.896875 306.55558594 290.79375 307.11117188 290.6875 307.68359375 C289.85806825 310.47821321 288.54801581 312.5953498 287 315.0625 C285.31203653 317.76080698 284.00950639 319.97148084 283 323 C282.34 323 281.68 323 281 323 C280.87625 323.969375 280.7525 324.93875 280.625 325.9375 C280.315625 327.4534375 280.315625 327.4534375 280 329 C279.34 329.33 278.68 329.66 278 330 C277.06606559 331.655611 276.19897217 333.34950522 275.375 335.0625 C274.92898438 335.98160156 274.48296875 336.90070313 274.0234375 337.84765625 C273.68570312 338.55792969 273.34796875 339.26820313 273 340 C272.34 340 271.68 340 271 340 C270.67 341.65 270.34 343.3 270 345 C267.83125748 344.49396008 266.00032373 344.00016187 264 343 C263.375 339.9375 263.375 339.9375 263 337 C262.34 337 261.68 337 261 337 C259.5393715 334.35261084 259 333.10551666 259 330 C258.34 330 257.68 330 257 330 C255.27735506 326.70450534 253.70554068 323.66881155 253 320 C252.34 320 251.68 320 251 320 C250.67 318.02 250.34 316.04 250 314 C249.34 314 248.68 314 248 314 C247.71125 313.360625 247.4225 312.72125 247.125 312.0625 C246.17176549 309.84793921 246.17176549 309.84793921 244 309 C242.96898053 306.68020619 241.97063483 304.34570085 241 302 C240.34 301.01 239.68 300.02 239 299 C239 298.01 239 297.02 239 296 C238.34 296 237.68 296 237 296 C236.15930585 294.39967863 235.32768495 292.79458829 234.5 291.1875 C234.0359375 290.29417969 233.571875 289.40085937 233.09375 288.48046875 C232 286 232 286 232 283 C231.34 283 230.68 283 230 283 C229.67 281.68 229.34 280.36 229 279 C228.34 279 227.68 279 227 279 C226.66226562 278.28972656 226.32453125 277.57945312 225.9765625 276.84765625 C225.53054688 275.92855469 225.08453125 275.00945312 224.625 274.0625 C224.18414062 273.14597656 223.74328125 272.22945313 223.2890625 271.28515625 C222.20800838 268.87096198 222.20800838 268.87096198 220 268 C219.375 264.9375 219.375 264.9375 219 262 C218.34 262 217.68 262 217 262 C215.5393715 259.35261084 215 258.10551666 215 255 C214.34 255 213.68 255 213 255 C212.67 253.02 212.34 251.04 212 249 C211.01 248.67 210.02 248.34 209 248 C207.90234375 245.96875 207.90234375 245.96875 206.9375 243.5 C205.77297997 240.03943188 205.77297997 240.03943188 203 238 C201.94517743 236.24005148 200.95367383 234.44174865 200 232.625 C198.42464946 229.63971073 196.87398299 226.81097449 195 224 C195 223.01 195 222.02 195 221 C194.34 221 193.68 221 193 221 C192.67 219.02 192.34 217.04 192 215 C191.21689453 215.48339844 191.21689453 215.48339844 190.41796875 215.9765625 C184.69315549 218.39966601 177.13178497 217.85452361 171.22265625 216.2421875 C165.69677086 213.90678835 162.33384984 211.00077475 159 206 C159 205.01 159 204.02 159 203 C158.34 203 157.68 203 157 203 C155.86082782 199.58248347 155.88661519 196.96512063 155.90234375 193.36328125 C155.90556641 192.06455078 155.90878906 190.76582031 155.91210938 189.42773438 C155.92046469 188.05598892 155.92892963 186.68424413 155.9375 185.3125 C155.94251665 183.92903805 155.94707927 182.54557437 155.95117188 181.16210938 C155.96297471 177.77469605 155.97943981 174.38736967 156 171 C155.34 170.67 154.68 170.34 154 170 C154 169.34 154 168.68 154 168 C149.05 167.67 144.1 167.34 139 167 C139.14119018 170.87521987 139.28777812 174.75010825 139.4375 178.625 C139.47681641 179.71941406 139.51613281 180.81382812 139.55664062 181.94140625 C139.61948242 183.53662109 139.61948242 183.53662109 139.68359375 185.1640625 C139.72025146 186.13811035 139.75690918 187.1121582 139.79467773 188.11572266 C140.00893288 191.1254852 140.45931357 194.03295916 141 197 C141.69867188 197.06058594 142.39734375 197.12117187 143.1171875 197.18359375 C144.02726563 197.26738281 144.93734375 197.35117187 145.875 197.4375 C147.23238281 197.55931641 147.23238281 197.55931641 148.6171875 197.68359375 C151 198 151 198 153 199 C153.02684312 201.81256281 153.04676188 204.62487241 153.0625 207.4375 C153.07087891 208.23994141 153.07925781 209.04238281 153.08789062 209.86914062 C153.0965143 211.91295221 153.0522815 213.95683902 153 216 C151.18818812 217.81181188 148.50483609 217.21580159 146.0625 217.25 C137.9735089 217.14368248 131.03055656 216.53075952 125.0625 210.625 C117.26076401 200.43122232 118.0520701 185.25845708 119 173 C119.30287455 171.65941957 119.62751211 170.3229292 120 169 C117.03 168.01 117.03 168.01 114 167 C113.67 164.69 113.34 162.38 113 160 C112.34 160 111.68 160 111 160 C111.01110306 160.64479813 111.02220612 161.28959625 111.03364563 161.95393372 C111.14409515 168.65314916 111.21960746 175.35210689 111.2746582 182.05200195 C111.29983309 184.55373638 111.33397537 187.05539705 111.37719727 189.55688477 C111.43771491 193.14878513 111.46618054 196.7397149 111.48828125 200.33203125 C111.51408768 201.45398392 111.5398941 202.57593658 111.56648254 203.73188782 C111.5668602 204.77274033 111.56723785 205.81359283 111.56762695 206.88598633 C111.58428154 208.2616552 111.58428154 208.2616552 111.60127258 209.66511536 C111 212 111 212 108.67155457 213.76029968 C97.17538654 219.09494766 81.96345081 219.8453949 70 216 C68.31923769 215.36971413 66.64455275 214.71949183 65 214 C65 213.34 65 212.68 65 212 C64.4225 211.79375 63.845 211.5875 63.25 211.375 C60.19718982 209.50939378 58.90350441 206.9832233 57 204 C56.94993622 208.2134451 56.91397231 212.42672489 56.89013672 216.64038086 C56.8801826 218.06879702 56.86661438 219.49719338 56.84912109 220.92553711 C56.71640387 232.05426686 57.67956887 242.32718566 61 253 C61.66 253 62.32 253 63 253 C63.64757625 254.43671568 64.29299453 255.87440416 64.9375 257.3125 C65.29714844 258.11300781 65.65679687 258.91351563 66.02734375 259.73828125 C67 262 67 262 68 265 C68.99 265.33 69.98 265.66 71 266 C73.6875 268.4375 73.6875 268.4375 76 271 C76 271.66 76 272.32 76 273 C76.66 273 77.32 273 78 273 C79.625 274.375 79.625 274.375 81 276 C81 276.66 81 277.32 81 278 C83.31 278.66 85.62 279.32 88 280 C88 280.66 88 281.32 88 282 C89.65 282.33 91.3 282.66 93 283 C93 283.66 93 284.32 93 285 C94.03125 285.12375 95.0625 285.2475 96.125 285.375 C100 286 100 286 102.875 287 C116.15499668 291.24959894 133.20780965 290.14280625 146 285 C146.99 285 147.98 285 149 285 C149 284.34 149 283.68 149 283 C150.65 282.67 152.3 282.34 154 282 C154 281.34 154 280.68 154 280 C155.65 279.67 157.3 279.34 159 279 C159.33 278.01 159.66 277.02 160 276 C162.0625 275.3125 162.0625 275.3125 164 275 C164 274.34 164 273.68 164 273 C166.375 270.375 166.375 270.375 169 268 C169.66 268 170.32 268 171 268 C171.268125 267.278125 171.53625 266.55625 171.8125 265.8125 C172.99901362 263.00233617 174.27485639 260.51583443 176 258 C176.66 258 177.32 258 178 258 C178.19335938 257.39671875 178.38671875 256.7934375 178.5859375 256.171875 C178.84632813 255.37265625 179.10671875 254.5734375 179.375 253.75 C179.63023437 252.96109375 179.88546875 252.1721875 180.1484375 251.359375 C180.95173667 249.13372042 181.89711662 247.09068328 183 245 C184.65 245.33 186.3 245.66 188 246 C188.99 249.465 188.99 249.465 190 253 C190.66 253 191.32 253 192 253 C192.83819158 254.62249941 193.6704116 256.24808497 194.5 257.875 C194.9640625 258.77992188 195.428125 259.68484375 195.90625 260.6171875 C197 263 197 263 197 265 C197.66 265 198.32 265 199 265 C199.33 266.65 199.66 268.3 200 270 C200.66 270 201.32 270 202 270 C202.33 271.65 202.66 273.3 203 275 C203.66 275 204.32 275 205 275 C205.66 277.31 206.32 279.62 207 282 C207.66 282 208.32 282 209 282 C209.33 283.65 209.66 285.3 210 287 C210.66 287 211.32 287 212 287 C212.70492893 288.21925475 213.38825901 289.4510106 214.0625 290.6875 C214.44535156 291.37199219 214.82820313 292.05648438 215.22265625 292.76171875 C216.22643992 295.65201042 215.94891917 297.10400612 215 300 C213.51171875 302.421875 213.51171875 302.421875 211.6875 304.75 C210.79611328 305.91789063 210.79611328 305.91789063 209.88671875 307.109375 C207.83710868 309.16322857 206.76815574 309.45573259 204 310 C202.71563266 311.9837767 202.71563266 311.9837767 202 314 C201.34 314 200.68 314 200 314 C199.67 314.99 199.34 315.98 199 317 C198.34 317 197.68 317 197 317 C197 317.66 197 318.32 197 319 C195.68 319.33 194.36 319.66 193 320 C193 320.66 193 321.32 193 322 C191.3203125 323.2890625 191.3203125 323.2890625 189.125 324.625 C188.40570313 325.07101562 187.68640625 325.51703125 186.9453125 325.9765625 C185 327 185 327 183 327 C183 327.66 183 328.32 183 329 C181.02 329.33 179.04 329.66 177 330 C177 330.66 177 331.32 177 332 C174.09399739 333.25664978 172.20395416 334 169 334 C169 334.66 169 335.32 169 336 C166.36 336.33 163.72 336.66 161 337 C161 337.66 161 338.32 161 339 C160.14535156 339.20496094 159.29070312 339.40992188 158.41015625 339.62109375 C157.30542969 339.89050781 156.20070313 340.15992188 155.0625 340.4375 C153.40927734 340.83775391 153.40927734 340.83775391 151.72265625 341.24609375 C149.10578746 341.72995725 149.10578746 341.72995725 148 343 C138.09393305 345.23701979 128.26677883 345.2457645 118.1875 345.125 C116.70508426 345.11493652 115.22266181 345.1058167 113.74023438 345.09765625 C110.16001326 345.07594075 106.58005192 345.04160246 103 345 C103 344.34 103 343.68 103 343 C102.41992188 343.02320313 101.83984375 343.04640625 101.2421875 343.0703125 C96.33309856 343.1837238 92.63515755 342.77516672 88 341 C85.34388971 340.28396298 82.67449245 339.64556714 80 339 C80 338.34 80 337.68 80 337 C77.36 336.67 74.72 336.34 72 336 C72 335.34 72 334.68 72 334 C70.989375 333.731875 69.97875 333.46375 68.9375 333.1875 C65.12672558 332.1064844 61.61124792 330.62137662 58 329 C58 328.34 58 327.68 58 327 C57.195625 326.5978125 57.195625 326.5978125 56.375 326.1875 C55.59125 325.795625 54.8075 325.40375 54 325 C53.030625 324.566875 52.06125 324.13375 51.0625 323.6875 C47.7104828 321.84047012 45.63147021 319.76304372 43 317 C41.90535195 316.09256017 40.80109032 315.19659161 39.6875 314.3125 C38.800625 313.549375 37.91375 312.78625 37 312 C37 311.34 37 310.68 37 310 C35.68 309.34 34.36 308.68 33 308 C33 307.34 33 306.68 33 306 C32.01 305.67 31.02 305.34 30 305 C27.67581306 303.21216389 27.06381286 302.37376105 26.5625 299.4375 C26.26012621 296.82682205 26.26012621 296.82682205 23.9375 295.6875 C22.9784375 295.3471875 22.9784375 295.3471875 22 295 C22 294.01 22 293.02 22 292 C21.34 292 20.68 292 20 292 C19.505 290.515 19.505 290.515 19 289 C18.2265625 288.2575 18.2265625 288.2575 17.4375 287.5 C16 286 16 286 16 283 C15.34 283 14.68 283 14 283 C12.74335022 280.09399739 12 278.20395416 12 275 C11.34 275 10.68 275 10 275 C9.505 271.535 9.505 271.535 9 268 C8.34 268 7.68 268 7 268 C6.87882812 267.39671875 6.75765625 266.7934375 6.6328125 266.171875 C6.46523437 265.37265625 6.29765625 264.5734375 6.125 263.75 C5.96257812 262.96109375 5.80015625 262.1721875 5.6328125 261.359375 C5.11450672 259.02767047 5.11450672 259.02767047 3.99609375 257.2421875 C2.44799063 253.75743773 2.30118757 250.14470075 1.9375 246.375 C1.59696742 241.0249569 1.59696742 241.0249569 0 236 C-0.15067214 234.5534758 -0.24861036 233.1012066 -0.31640625 231.6484375 C-0.37924805 230.37226563 -0.37924805 230.37226563 -0.44335938 229.0703125 C-0.48267578 228.18085938 -0.52199219 227.29140625 -0.5625 226.375 C-0.60568359 225.4778125 -0.64886719 224.580625 -0.69335938 223.65625 C-0.79956861 221.43765717 -0.90161194 219.2189512 -1 217 C-1.99 216.67 -2.98 216.34 -4 216 C-4.495 210.06 -4.495 210.06 -5 204 C-5.66 205.32 -6.32 206.64 -7 208 C-8.64295195 209.36244796 -10.30824337 210.69864875 -12 212 C-12.33 212.66 -12.66 213.32 -13 214 C-28.11005854 220.79828578 -42.78469565 218.53221832 -58 214 C-58 213.34 -58 212.68 -58 212 C-58.66 212 -59.32 212 -60 212 C-60 210.68 -60 209.36 -60 208 C-59.34 208 -58.68 208 -58 208 C-57.896875 207.13375 -57.79375 206.2675 -57.6875 205.375 C-56.95072908 201.75812458 -55.96219907 199.12498371 -54 196 C-51.8125 195.125 -51.8125 195.125 -50 195 C-50 195.66 -50 196.32 -50 197 C-46.39627603 197.19676145 -42.7920131 197.38081639 -39.1875 197.5625 C-38.16333984 197.61857422 -37.13917969 197.67464844 -36.08398438 197.73242188 C-35.10107422 197.78076172 -34.11816406 197.82910156 -33.10546875 197.87890625 C-32.19949951 197.9260376 -31.29353027 197.97316895 -30.36010742 198.02172852 C-27.84615762 198.11954177 -27.84615762 198.11954177 -25 197 C-25.34786708 195.02463255 -25.34786708 195.02463255 -26 193 C-28.6848097 191.65759515 -31.21143802 191.5154155 -34.1875 191.125 C-39.29914771 190.37695399 -43.41491455 189.34585767 -48 187 C-48 186.34 -48 185.68 -48 185 C-48.598125 184.731875 -49.19625 184.46375 -49.8125 184.1875 C-53.74503879 182.05269323 -54.74780713 180.73135931 -56.25 176.375 C-57.48801143 170.72592264 -57.20884145 165.36512458 -54.5625 160.1875 C-54.046875 159.465625 -53.53125 158.74375 -53 158 C-52.67 157.2575 -52.34 156.515 -52 155.75 C-51 154 -51 154 -48 153 C-47.505 152.01 -47.505 152.01 -47 151 C-44.35139573 150.40644386 -41.70802678 150.25790731 -39 150 C-38.67 149.01 -38.34 148.02 -38 147 C-35.06243881 146.9730499 -32.12512445 146.95318526 -29.1875 146.9375 C-28.35412109 146.92912109 -27.52074219 146.92074219 -26.66210938 146.91210938 C-25.45844727 146.90727539 -25.45844727 146.90727539 -24.23046875 146.90234375 C-23.49207764 146.89710693 -22.75368652 146.89187012 -21.99291992 146.88647461 C-20 147 -20 147 -17 148 C-17 148.66 -17 149.32 -17 150 C-14.03 150.33 -11.06 150.66 -8 151 C-8 151.66 -8 152.32 -8 153 C-7.01 153 -6.02 153 -5 153 C-6.2668395 159.18595031 -7.45110655 164.67665983 -11 170 C-14.62105939 170.76810351 -17.04096354 169.59701307 -20.25 168.0625 C-24.8922019 165.85452834 -28.8889417 165.32451164 -34 165 C-34 165.66 -34 166.32 -34 167 C-34.66 167.33 -35.32 167.66 -36 168 C-36.33 168.99 -36.66 169.98 -37 171 C-36.01 171 -35.02 171 -34 171 C-34 171.66 -34 172.32 -34 173 C-33.030625 172.95875 -32.06125 172.9175 -31.0625 172.875 C-26.55110276 172.85651067 -22.35162348 173.89482578 -18 175 C-18 175.66 -18 176.32 -18 177 C-17.113125 177.061875 -16.22625 177.12375 -15.3125 177.1875 C-10.1474387 178.45440183 -7.86705868 181.69941197 -5 186 C-3.64859106 173.58745366 -3.88788261 161.15457202 -3.9375 148.6875 C-3.94252517 146.48242289 -3.94708628 144.27734467 -3.95117188 142.07226562 C-3.96209657 136.71481922 -3.97875399 131.3574149 -4 126 C-2.68 126 -1.36 126 0 126 C0 84.42 0 42.84 0 0 Z M-36 151 C-36 151.66 -36 152.32 -36 153 C-37.258125 153.103125 -38.51625 153.20625 -39.8125 153.3125 C-43.01951349 153.69579812 -43.01951349 153.69579812 -45.75 155.3125 C-46.1625 155.869375 -46.575 156.42625 -47 157 C-47.70125 157.61875 -48.4025 158.2375 -49.125 158.875 C-51.38295046 161.43401052 -51.69918743 162.61585855 -52 166 C-52.06316406 166.68449219 -52.12632813 167.36898437 -52.19140625 168.07421875 C-52.50034776 173.94410749 -51.57505623 177.29597865 -48 182 C-42.53280527 185.56003378 -35.69593346 187.64054221 -29.25 188.5 C-25.67690158 189.04970745 -23.68600567 189.55817666 -21 192 C-20.5625 195.5625 -20.5625 195.5625 -21 199 C-23.1385485 201.1385485 -24.13275314 201.42655063 -27 202 C-27 202.66 -27 203.32 -27 204 C-31.29 204 -35.58 204 -40 204 C-40 203.34 -40 202.68 -40 202 C-43.63 201.67 -47.26 201.34 -51 201 C-52.32 202.98 -53.64 204.96 -55 207 C-54.55966008 208.98020421 -54.55966008 208.98020421 -53 211 C-46.55757921 214.05089353 -40.94101905 214.48994684 -33.875 214.4375 C-32.43060547 214.4674707 -32.43060547 214.4674707 -30.95703125 214.49804688 C-24.92062821 214.49389529 -21.66910811 213.8542166 -17 210 C-16.13375 209.5875 -15.2675 209.175 -14.375 208.75 C-10.29683007 205.74503268 -8.70076104 201.32712623 -7.26953125 196.57421875 C-6.93589065 193.38770927 -7.65476472 191.60280746 -8.9375 188.6875 C-9.31777344 187.80449219 -9.69804687 186.92148437 -10.08984375 186.01171875 C-10.39019531 185.34785156 -10.69054687 184.68398438 -11 184 C-11.99 184 -12.98 184 -14 184 C-14.226875 183.38125 -14.45375 182.7625 -14.6875 182.125 C-16.44338677 179.2821357 -17.83661742 179.02128357 -21 178 C-24.53573772 177.48437158 -28.07032062 177.11787701 -31.625 176.7578125 C-35.45398029 175.89806461 -37.32804926 174.86025965 -40 172 C-40.3671739 169.08389426 -39.63295417 166.92132694 -39 164 C-29.94429307 163.0086948 -21.91126235 163.02515981 -13 165 C-12.49596232 163.70990357 -11.99690074 162.41786211 -11.5 161.125 C-11.2215625 160.40570313 -10.943125 159.68640625 -10.65625 158.9453125 C-9.89344982 157.02632539 -9.89344982 157.02632539 -10 155 C-13.82989106 153.19769832 -16.78121808 152.80377759 -21 153 C-21 152.34 -21 151.68 -21 151 C-25.95 151 -30.9 151 -36 151 Z M216 151 C216.33 151.99 216.66 152.98 217 154 C217.66 154 218.32 154 219 154 C219.103125 154.556875 219.20625 155.11375 219.3125 155.6875 C220.17576117 158.59119665 221.12288144 160.60505562 223 163 C224.010625 163.165 225.02125 163.33 226.0625 163.5 C227.031875 163.665 228.00125 163.83 229 164 C230.96249657 166.99047097 231.09624698 169.89948363 231.375 173.375 C231.89620733 178.95936423 234.07176217 182.50935946 237.5 186.9375 C239.23765296 188.38534489 239.23765296 188.38534489 243 188 C243 180.08 243 172.16 243 164 C242.34 164 241.68 164 241 164 C241 163.01 241 162.02 241 161 C240.34 161 239.68 161 239 161 C238.34 159.68 237.68 158.36 237 157 C236.34 157 235.68 157 235 157 C235 156.34 235 155.68 235 155 C231.5647952 152.70986347 230.014669 152.82157027 226 153 C226 152.34 226 151.68 226 151 C222.7 151 219.4 151 216 151 Z M304 153 C304.33 154.32 304.66 155.64 305 157 C305.66 157 306.32 157 307 157 C307.33 158.65 307.66 160.3 308 162 C309.32 162.33 310.64 162.66 312 163 C314.25885324 159.74602492 314.25885324 159.74602492 315 156 C315.66 156 316.32 156 317 156 C317.66 154.35 318.32 152.7 319 151 C317.06280622 150.94593878 315.12518079 150.90717975 313.1875 150.875 C312.10855469 150.85179687 311.02960938 150.82859375 309.91796875 150.8046875 C306.80597132 150.76976283 306.80597132 150.76976283 304 153 Z M467 151 C466.67 152.98 466.34 154.96 466 157 C465.01 157.33 464.02 157.66 463 158 C463 158.99 463 159.98 463 161 C462.01 161.495 462.01 161.495 461 162 C463.66241359 162.7765373 466.25136507 163.15032919 469 163.4375 C472.05441912 163.8115105 474.4327899 164.19344475 477 166 C477.515625 166.70125 478.03125 167.4025 478.5625 168.125 C479.036875 168.74375 479.51125 169.3625 480 170 C480.99 170 481.98 170 483 170 C483 169.34 483 168.68 483 168 C483.969375 167.87625 484.93875 167.7525 485.9375 167.625 C486.948125 167.41875 487.95875 167.2125 489 167 C489.33 166.34 489.66 165.68 490 165 C486.89183968 158.13614597 482.81889567 154.63666957 475.9375 151.6875 C472.85641348 150.96639464 470.15322321 150.84984651 467 151 Z M60 153 C59.95057629 159.76268445 59.91426897 166.52526385 59.89013672 173.28808594 C59.8800768 175.58888582 59.86642738 177.8896729 59.84912109 180.19042969 C59.82487265 183.4967769 59.81351677 186.80295512 59.8046875 190.109375 C59.79436493 191.13867126 59.78404236 192.16796753 59.77340698 193.22845459 C59.77325592 194.18914856 59.77310486 195.14984253 59.77294922 196.13964844 C59.768508 196.98348083 59.76406677 197.82731323 59.75949097 198.69671631 C60.02144941 201.20541467 60.74075696 202.83328958 62 205 C62.66 205 63.32 205 64 205 C64 205.99 64 206.98 64 208 C66.70784963 210.50726818 69.58061904 211.70618018 73 213 C73.33 213.33 73.66 213.66 74 214 C86.03180059 215.082616 97.13055242 214.43472379 108 209 C108 193.16 108 177.32 108 161 C106.35 161 104.7 161 103 161 C103 161.66 103 162.32 103 163 C100.36 163.33 97.72 163.66 95 164 C95.24447876 165.24354248 95.24447876 165.24354248 95.49389648 166.51220703 C96.04375438 170.30153164 96.12617486 173.98731179 96.09765625 177.8046875 C96.0962413 178.5286673 96.09482635 179.25264709 96.09336853 179.99856567 C96.08781075 182.29075407 96.07526633 184.58284157 96.0625 186.875 C96.05747953 188.43749858 96.05291759 189.99999871 96.04882812 191.5625 C96.03870984 195.3750693 96.01912664 199.1874229 96 203 C89.73 203.33 83.46 203.66 77 204 C77 203.34 77 202.68 77 202 C75.16666667 199.83333333 75.16666667 199.83333333 73 198 C72.34 198 71.68 198 71 198 C71 183.15 71 168.3 71 153 C67.37 153 63.74 153 60 153 Z M386 159 C382.38277546 164.29665022 382.64098428 169.20922966 382.8125 175.375 C382.82603516 176.30183594 382.83957031 177.22867188 382.85351562 178.18359375 C382.88866119 180.45633998 382.93785868 182.72785847 383 185 C386.42298577 183.85900474 387.14758766 182.99914379 389 180 C389 179.01 389 178.02 389 177 C389.66 177 390.32 177 391 177 C391.64995297 175.58521865 392.29478722 174.16808513 392.9375 172.75 C393.47697266 171.56664062 393.47697266 171.56664062 394.02734375 170.359375 C394.90033279 168.24176302 395.51338508 166.23330638 396 164 C396.66 164 397.32 164 398 164 C398.83848804 162.54462432 399.67063934 161.08559627 400.5 159.625 C401.19609375 158.40683594 401.19609375 158.40683594 401.90625 157.1640625 C403.15035859 155.10663126 403.15035859 155.10663126 403 153 C395.88434616 152.22374685 391.21574061 154.00029598 386 159 Z M240 154 C241 156 241 156 241 156 Z M117 158 C117 159.65 117 161.3 117 163 C119.97 163.495 119.97 163.495 123 164 C123.01981934 165.02883301 123.03963867 166.05766602 123.06005859 167.11767578 C123.13642426 170.95336398 123.22509269 174.78868808 123.31738281 178.62402344 C123.3555451 180.28052556 123.39041975 181.93710695 123.421875 183.59375 C123.467804 185.98205801 123.52575037 188.36982632 123.5859375 190.7578125 C123.59748871 191.49242706 123.60903992 192.22704163 123.62094116 192.98391724 C123.74444727 197.33667794 124.41074817 200.94601375 126 205 C126.66 205 127.32 205 128 205 C128 205.99 128 206.98 128 208 C132.47539699 211.85810086 138.37291495 212.11066185 144 213 C145.65 213.33 147.3 213.66 149 214 C149 210.04 149 206.08 149 202 C147.906875 201.855625 146.81375 201.71125 145.6875 201.5625 C142 201 142 201 139 200 C139 199.34 139 198.68 139 198 C138.34 198 137.68 198 137 198 C135.84160957 194.52482871 135.77198782 191.3272998 135.68359375 187.70703125 C135.66281265 187.00100266 135.64203156 186.29497406 135.62062073 185.56755066 C135.55532509 183.31596449 135.49633353 181.06426338 135.4375 178.8125 C135.39429575 177.2844934 135.35068084 175.75649836 135.30664062 174.22851562 C135.19966426 170.48579438 135.09834078 166.7429577 135 163 C136.32 162.67 137.64 162.34 139 162 C135.01402828 160.07130401 131.33946151 159.60442624 126.98828125 159.24609375 C125 159 125 159 123 158 C121.00039988 157.960008 118.99952758 157.95653201 117 158 Z M243 158 C244 160 244 160 244 160 Z M246 164 C247 167 247 167 247 167 Z M87 168 C87 168.66 87 169.32 87 170 C86.2575 170.103125 85.515 170.20625 84.75 170.3125 C81.79636774 171.05090806 80.347101 172.1223192 78 174 C77.01 174.33 76.02 174.66 75 175 C73.78890237 181.81242416 72.53560736 189.48545768 75.25 196 C78.50432495 199.88027623 78.50432495 199.88027623 83.2578125 201.1796875 C85.51376749 201.18675946 87.74809636 201.12991752 90 201 C92.34894745 197.30995799 92.23059746 194.1328897 92.1953125 189.828125 C92.19106766 188.8044986 92.19106766 188.8044986 92.18673706 187.76019287 C92.17558098 185.58994693 92.15048557 183.42012029 92.125 181.25 C92.11496426 179.77474556 92.10583944 178.29948463 92.09765625 176.82421875 C92.07565687 173.21601058 92.04115883 169.60804625 92 166 C90.15953612 166 88.60370406 167.17228177 87 168 Z M247 167 C247 174.92 247 182.84 247 191 C245.02 191 243.04 191 241 191 C241 191.99 241 192.98 241 194 C241.66 194 242.32 194 243 194 C243.0825 194.721875 243.165 195.44375 243.25 196.1875 C244.15533237 199.58249638 245.71303777 201.36652834 248 204 C248.66 204.99 249.32 205.98 250 207 C250 194.13 250 181.26 250 168 C249.01 167.67 248.02 167.34 247 167 Z M372 168 C371.67 169.98 371.34 171.96 371 174 C370.01 174.33 369.02 174.66 368 175 C363.12976562 181.54002902 363.39424816 187.15398527 364.375 195 C366.86415254 198.06357235 369.90776321 198.18766869 373.6875 198.8359375 C376.02615 199.19917051 376.02615 199.19917051 378 198 C378.65772428 194.97065509 378.65772428 194.97065509 379 192 C379.99 191.67 380.98 191.34 382 191 C381.34 190.01 380.68 189.02 380 188 C379.68115234 185.63989258 379.68115234 185.63989258 379.5859375 182.89453125 C379.54726563 181.91162109 379.50859375 180.92871094 379.46875 179.91601562 C379.4378125 178.89185547 379.406875 177.86769531 379.375 176.8125 C379.33632813 175.77673828 379.29765625 174.74097656 379.2578125 173.67382812 C379.16351704 171.11606378 379.07791798 168.55830713 379 166 C376.64712386 166 374.20626776 167.24893012 372 168 Z M161 174 C160.94182794 178.22910869 160.90634537 182.45811409 160.875 186.6875 C160.85824219 187.88568359 160.84148437 189.08386719 160.82421875 190.31835938 C160.81777344 191.47529297 160.81132812 192.63222656 160.8046875 193.82421875 C160.79421387 194.88729248 160.78374023 195.95036621 160.77294922 197.0456543 C161.08826943 201.14854662 162.13925006 203.95480365 164.75 207.125 C170.61873572 212.0156131 178.36596295 214 186 214 C186.05422947 212.5629191 186.09289723 211.12524538 186.125 209.6875 C186.14820313 208.88699219 186.17140625 208.08648437 186.1953125 207.26171875 C186.15817322 204.71611424 186.15817322 204.71611424 184 202 C182.88625 201.71125 181.7725 201.4225 180.625 201.125 C176.27403645 199.77470097 175.1285113 199.01142515 173 195 C172.79845928 193.21374186 172.65853015 191.42002507 172.5625 189.625 C172.2534453 183.91521439 170.83474444 181.20886585 167 177 C166.34 177 165.68 177 165 177 C165 176.34 165 175.68 165 175 C163.68 174.67 162.36 174.34 161 174 Z M453 175 C451.27735506 178.29549466 449.70554068 181.33118845 449 185 C448.34 185 447.68 185 447 185 C443.69704331 190.54424872 442.2564807 194.52076042 443 201 C445.5737362 206.51514899 449.70686108 210.12097043 455.01171875 212.96875 C462.28629113 215.47919066 470.8938942 215.44861372 478.14453125 212.890625 C483.48522082 209.91200953 487.07090809 206.35316797 490 201 C489.505 199.515 489.505 199.515 489 198 C487.700625 197.87625 486.40125 197.7525 485.0625 197.625 C482.84765625 197.4140625 482.84765625 197.4140625 481 197 C480.505 196.01 480.505 196.01 480 195 C480 195.66 480 196.32 480 197 C479.01 197.33 478.02 197.66 477 198 C476.54625 198.474375 476.0925 198.94875 475.625 199.4375 C472.9885965 201.97250336 470.22767927 202.8707706 466.625 203.25 C463.14675535 202.9187386 460.25638722 202.29026664 457 201 C455.24369067 197.6329539 454.72450551 194.68239963 454.5859375 190.91796875 C454.54726563 189.98662109 454.50859375 189.05527344 454.46875 188.09570312 C454.4378125 187.13599609 454.406875 186.17628906 454.375 185.1875 C454.33632813 184.20845703 454.29765625 183.22941406 454.2578125 182.22070312 C454.16389184 179.81398626 454.07821799 177.40726988 454 175 C453.67 175 453.34 175 453 175 Z M254 178 C253.80785677 182.80509958 253.62911692 187.61043783 253.46289062 192.41650391 C253.40442 194.05205718 253.34226081 195.68748287 253.27636719 197.32275391 C253.1823939 199.67066214 253.10161009 202.01870678 253.0234375 204.3671875 C252.99124115 205.10057343 252.9590448 205.83395935 252.9258728 206.58956909 C252.87243572 208.39242355 252.92719807 210.19782365 253 212 C253.66 212.66 254.32 213.32 255 214 C255.66 214 256.32 214 257 214 C258.7325 214.0928125 258.7325 214.0928125 260.5 214.1875 C262.2325 214.0946875 262.2325 214.0946875 264 214 C267.38129034 208.92806449 266.4596217 202.92845381 266 197 C265.26689824 194.31337273 264.3887578 192.43032615 263 190 C262.34 190 261.68 190 261 190 C261 189.01 261 188.02 261 187 C260.34 187 259.68 187 259 187 C258.87625 186.443125 258.7525 185.88625 258.625 185.3125 C257.94023145 182.77885636 257.00866237 180.42078968 256 178 C255.34 178 254.68 178 254 178 Z M359 190 C360 192 360 192 360 192 Z M-4 191 C-4 193.97 -4 196.94 -4 200 C-3.67 200 -3.34 200 -3 200 C-3 197.03 -3 194.06 -3 191 C-3.33 191 -3.66 191 -4 191 Z M176 191 C176 192.32 176 193.64 176 195 C176.66 195 177.32 195 178 195 C178 195.66 178 196.32 178 197 C178.66 196.67 179.32 196.34 180 196 C179.03114628 194.31503702 178.03013277 192.64821244 177 191 C176.67 191 176.34 191 176 191 Z M358 192 C357.34 193.11375 356.68 194.2275 356 195.375 C355.62875 196.00148438 355.2575 196.62796875 354.875 197.2734375 C353.84931652 198.97472667 353.84931652 198.97472667 354 201 C353.34 201 352.68 201 352 201 C351.67 202.65 351.34 204.3 351 206 C351.66 206 352.32 206 353 206 C353 206.66 353 207.32 353 208 C357.4135435 211.38371669 362.72231121 212.55504054 368 214 C371.11990898 211.21466571 371.53816182 209.15654359 372 205 C372.66 205 373.32 205 374 205 C374 204.01 374 203.02 374 202 C373.36191406 201.87882813 372.72382812 201.75765625 372.06640625 201.6328125 C371.24011719 201.46523438 370.41382813 201.29765625 369.5625 201.125 C368.73878906 200.96257812 367.91507813 200.80015625 367.06640625 200.6328125 C366.38449219 200.42398438 365.70257812 200.21515625 365 200 C364.67 199.34 364.34 198.68 364 198 C363.34 198 362.68 198 362 198 C362 197.34 362 196.68 362 196 C361.34 196 360.68 196 360 196 C359.67 194.68 359.34 193.36 359 192 C358.67 192 358.34 192 358 192 Z M269 202 C270 204 270 204 270 204 Z M270 205 C270 208.63 270 212.26 270 216 C265.38 216.33 260.76 216.66 256 217 C257.52096628 220.80241571 259.14010268 224.36474615 261 228 C261.66 228 262.32 228 263 228 C263.33 229.65 263.66 231.3 264 233 C264.66 233 265.32 233 266 233 C266.33 234.65 266.66 236.3 267 238 C267.66 238 268.32 238 269 238 C270.4606285 235.35261084 271 234.10551666 271 231 C271.66 231 272.32 231 273 231 C273.33 229.35 273.66 227.7 274 226 C274.66 226 275.32 226 276 226 C278.56786548 221.57756501 277.71809676 218.48856529 276.5078125 213.79296875 C276.34023438 213.20128906 276.17265625 212.60960937 276 212 C275.34 212 274.68 212 274 212 C273.67 210.68 273.34 209.36 273 208 C272.34 208 271.68 208 271 208 C270.67 207.01 270.34 206.02 270 205 Z M349 208 C345.47914656 212.5430367 343.89544002 216.19111196 344 222 C344.75445217 225.56650118 345.41993723 227.41993723 348 230 C350.45647449 232.45647449 351.0965925 234.68750583 352 238 C352.66 238 353.32 238 354 238 C354.32613281 237.39671875 354.65226562 236.7934375 354.98828125 236.171875 C355.42527344 235.37265625 355.86226563 234.5734375 356.3125 233.75 C356.74175781 232.96109375 357.17101562 232.1721875 357.61328125 231.359375 C359 229 359 229 360.66796875 226.890625 C362.28797677 224.97671559 362.28797677 224.97671559 362 222 C362.99 221.67 363.98 221.34 365 221 C365.33 219.35 365.66 217.7 366 216 C365.19175781 215.84144531 364.38351562 215.68289063 363.55078125 215.51953125 C352.93673111 213.20210896 352.93673111 213.20210896 349 208 Z " fill="#FFFFFF" transform="translate(154,131)"/>
<path d="M0 0 C6.6 0 13.2 0 20 0 C20.33 12.87 20.66 25.74 21 39 C21.99 39 22.98 39 24 39 C24 38.01 24 37.02 24 36 C24.66 36 25.32 36 26 36 C26.33 35.01 26.66 34.02 27 33 C27.66 33 28.32 33 29 33 C29.226875 32.46375 29.45375 31.9275 29.6875 31.375 C31.47132855 28.14711977 33.41810965 25.64056967 36 23 C40.75768169 21.7930365 45.50172098 21.88021914 50.375 21.9375 C51.11105469 21.94201172 51.84710937 21.94652344 52.60546875 21.95117188 C54.40368158 21.96284858 56.20185197 21.98077989 58 22 C58.495 24.475 58.495 24.475 59 27 C58.34 27 57.68 27 57 27 C57 27.66 57 28.32 57 29 C55.35697047 30.68997323 53.68528688 32.35216394 52 34 C51.175 35.010625 50.35 36.02125 49.5 37.0625 C47 40 47 40 44.5 41.9375 C42.22341171 43.81568534 40.95274333 45.34976122 39.3125 47.75 C38.549375 48.8225 37.78625 49.895 37 51 C36.34 51 35.68 51 35 51 C35.51365175 55.42530739 37.05163953 57.66012532 39.9375 61 C42.72168832 64.23390295 44.61750642 66.94661568 46 71 C46.66 71 47.32 71 48 71 C48 71.66 48 72.32 48 73 C48.66 73 49.32 73 50 73 C50 73.99 50 74.98 50 76 C50.66 76 51.32 76 52 76 C52 76.66 52 77.32 52 78 C52.66 78 53.32 78 54 78 C55.38123963 79.96722008 56.71488126 81.96868328 58 84 C58.33 84.33 58.66 84.66 59 85 C59 86.98 59 88.96 59 91 C52.07 91 45.14 91 38 91 C38 90.01 38 89.02 38 88 C37.01 87.67 36.02 87.34 35 87 C33 85 33 85 32 83 C32.33 82.34 32.66 81.68 33 81 C32.01 80.67 31.02 80.34 30 80 C30 79.34 30 78.68 30 78 C29.34 78 28.68 78 28 78 C27.773125 77.443125 27.54625 76.88625 27.3125 76.3125 C25.73164717 73.28843217 25.73164717 73.28843217 21 69 C20.67 76.26 20.34 83.52 20 91 C13.4 91 6.8 91 0 91 C0 60.97 0 30.94 0 0 Z M4 3 C4 30.72 4 58.44 4 87 C7.96 87 11.92 87 16 87 C16 80.07 16 73.14 16 66 C16.66 66 17.32 66 18 66 C18 65.34 18 64.68 18 64 C19.98 64 21.96 64 24 64 C26 68 26 68 28 72 C28.66 72 29.32 72 30 72 C30.28875 72.804375 30.5775 73.60875 30.875 74.4375 C31.73262568 77.1326468 31.73262568 77.1326468 34 78 C34.33 78.99 34.66 79.98 35 81 C35.66 81 36.32 81 37 81 C37.28875 81.61875 37.5775 82.2375 37.875 82.875 C38.93720042 85.13325765 38.93720042 85.13325765 41 87 C44.12814514 87.24360073 44.12814514 87.24360073 47.625 87.125 C48.81351563 87.10695313 50.00203125 87.08890625 51.2265625 87.0703125 C52.14179687 87.04710937 53.05703125 87.02390625 54 87 C53.67 86.01 53.34 85.02 53 84 C52.34 84 51.68 84 51 84 C50.67 82.68 50.34 81.36 50 80 C49.34 80 48.68 80 48 80 C47 78 46 76 45 74 C44.34 74 43.68 74 43 74 C41.79371992 71.66785852 40.8345262 69.50357861 40 67 C39.34 67 38.68 67 38 67 C37.731875 66.443125 37.46375 65.88625 37.1875 65.3125 C35.89100504 62.78774666 34.57523677 60.36285516 33 58 C32.34 58 31.68 58 31 58 C30.3125 55.6875 30.3125 55.6875 30 53 C31.4375 51.375 31.4375 51.375 33 50 C33 49.01 33 48.02 33 47 C33.66 47 34.32 47 35 47 C36.44218652 45.57731289 36.44218652 45.57731289 37.875 43.75 C39.64727834 41.59980937 41.3731159 39.63670294 43.375 37.6875 C45.2312139 36.15034461 45.2312139 36.15034461 45 34 C45.66 34 46.32 34 47 34 C48.35712166 32.44144019 48.35712166 32.44144019 49.625 30.5 C50.07101562 29.8503125 50.51703125 29.200625 50.9765625 28.53125 C51.31429687 28.0259375 51.65203125 27.520625 52 27 C49.75106046 26.89176227 47.50062425 26.81430355 45.25 26.75 C43.99703125 26.70359375 42.7440625 26.6571875 41.453125 26.609375 C37.94583614 26.70445973 37.94583614 26.70445973 35.546875 28.890625 C33.80287878 30.83283896 33.80287878 30.83283896 34 33 C33.01 33.33 32.02 33.66 31 34 C28.59004634 36.63541018 28.59004634 36.63541018 28 40 C26.515 40.495 26.515 40.495 25 41 C21.35986933 44.47935472 21.35986933 44.47935472 20 49 C18.02 49.495 18.02 49.495 16 50 C16 34.49 16 18.98 16 3 C12.04 3 8.08 3 4 3 Z " fill="#FFFFFF" transform="translate(651,255)"/>
<path d="M0 0 C0.66 0 1.32 0 2 0 C2 0.66 2 1.32 2 2 C1.34 2 0.68 2 0 2 C0 1.34 0 0.68 0 0 Z " fill="#FFFFFF" transform="translate(474,429)"/>
<path d="" fill="#FFFFFF" transform="translate(0,0)"/>
<path d="" fill="#FFFFFF" transform="translate(0,0)"/>
<path d="M0 0 C2 1 2 1 2 1 Z " fill="#FFFFFF" transform="translate(237,303)"/>
<path d="" fill="#FFFFFF" transform="translate(0,0)"/>
<path d="" fill="#FFFFFF" transform="translate(0,0)"/>
<path d="" fill="#FFFFFF" transform="translate(0,0)"/>
<path d="" fill="#FFFFFF" transform="translate(0,0)"/>
<path d="" fill="#FFFFFF" transform="translate(0,0)"/>
</svg>
